<?xml version="1.0" encoding="utf-8"?>
<svg xmlns="http://www.w3.org/2000/svg" viewBox="396.5 136.5 39 39" width="36" height="36">
  <path fill="none" stroke="#64748B" stroke-width="2.13" stroke-linecap="round" stroke-linejoin="round" d="M430.8,159.9v8.5c0,2.9-2.4,5.3-5.3,5.3h-17c-2.9,0-5.3-2.4-5.3-5.3v-17c0-2.9,2.4-5.3,5.3-5.3h8.5"/>
  <rect x="415" y="157.9" fill="none" stroke="#64748B" stroke-width="2.13" stroke-linecap="round" stroke-linejoin="round" width="3.9" height="3.9"/>
  <line x1="422.9" y1="159.9" x2="424.7" y2="159.9" fill="none" stroke="#64748B" stroke-width="2.13" stroke-linecap="round" stroke-linejoin="round"/>
  <line x1="421.2" y1="155.6" x2="422.5" y2="154.4" fill="none" stroke="#64748B" stroke-width="2.13" stroke-linecap="round" stroke-linejoin="round"/>
  <line x1="417" y1="153.9" x2="417" y2="152.1" fill="none" stroke="#64748B" stroke-width="2.13" stroke-linecap="round" stroke-linejoin="round"/>
  <line x1="412.7" y1="155.6" x2="411.5" y2="154.4" fill="none" stroke="#64748B" stroke-width="2.13" stroke-linecap="round" stroke-linejoin="round"/>
  <line x1="411" y1="159.9" x2="409.2" y2="159.9" fill="none" stroke="#64748B" stroke-width="2.13" stroke-linecap="round" stroke-linejoin="round"/>
  <line x1="412.7" y1="164.1" x2="411.5" y2="165.4" fill="none" stroke="#64748B" stroke-width="2.13" stroke-linecap="round" stroke-linejoin="round"/>
  <line x1="417" y1="165.8" x2="417" y2="167.6" fill="none" stroke="#64748B" stroke-width="2.13" stroke-linecap="round" stroke-linejoin="round"/>
  <line x1="421.2" y1="164.1" x2="422.5" y2="165.4" fill="none" stroke="#64748B" stroke-width="2.13" stroke-linecap="round" stroke-linejoin="round"/>
  <line x1="422.9" y1="159.9" x2="424.7" y2="159.9" fill="none" stroke="#64748B" stroke-width="2.13" stroke-linecap="round" stroke-linejoin="round"/>
  <polyline fill="none" stroke="#64748B" stroke-width="2.13" stroke-linecap="round" stroke-linejoin="round" points="427.7,146.5 421.7,146.5 424.1,144.1"/>
  <polyline fill="none" stroke="#64748B" stroke-width="2.13" stroke-linecap="round" stroke-linejoin="round" points="424.5,150.5 430.5,150.5 428.1,152.9"/>
</svg>
