<?xml version="1.0" encoding="utf-8"?>
<svg xmlns="http://www.w3.org/2000/svg" viewBox="418 278 42 38" width="30.6" height="30.6">
  <path fill="none" stroke="#64748B" stroke-width="2.13" stroke-linecap="round" stroke-linejoin="round" d="M444.2,309.7h-17c-2.9,0-5.3-2.4-5.3-5.3v-17c0-2.9,2.4-5.3,5.3-5.3h17c2.9,0,5.3,2.4,5.3,5.3v17 C449.5,307.3,447.1,309.7,444.2,309.7z"/>
  <rect x="430.5" y="293.3" fill="none" stroke="#64748B" stroke-width="2.13" stroke-linecap="round" stroke-linejoin="round" width="10.4" height="11.4"/>
  <path fill="none" stroke="#64748B" stroke-width="2.13" stroke-linecap="round" stroke-linejoin="round" d="M432.6,293.1v-2.6c-0.1-1.7,1.3-3.1,3-3.2h0.1l0,0c1.8,0,3.2,1.4,3.2,3.2l0,0v2.6"/>
  <line x1="435.7" y1="298" x2="435.7" y2="299.9" fill="none" stroke="#64748B" stroke-width="2.13" stroke-linecap="round" stroke-linejoin="round"/>
</svg>
