<?xml version="1.0" encoding="UTF-8"?>
<svg xmlns="http://www.w3.org/2000/svg" xmlns:xlink="http://www.w3.org/1999/xlink" viewBox="0 0 35.000 35.094" width="35.000" height="35.094">
<style type="text/css">
	.st0{fill:none;stroke:#64748B;stroke-width:2.13;stroke-linecap:round;stroke-linejoin:round;}
	.st1{fill:#64748B;stroke:#64748B;stroke-width:2.13;stroke-linecap:round;stroke-linejoin:round;}
	.st2{stroke:#64748B;stroke-width:2.13;stroke-linecap:round;stroke-linejoin:round;}
	.st3{fill:none;stroke:#64748B;stroke-width:2.13;stroke-linecap:round;stroke-linejoin:round;stroke-miterlimit:4;}
	.st4{fill:none;stroke:#64748B;stroke-width:1.98;stroke-linecap:round;stroke-linejoin:round;}
	.st5{fill:#64748B;stroke:#64748B;stroke-width:1.98;stroke-linecap:round;stroke-linejoin:round;}
	.st6{stroke:#64748B;stroke-width:1.98;stroke-linecap:round;stroke-linejoin:round;}
	.st7{stroke:#64748B;stroke-width:2.1301;stroke-linecap:round;stroke-linejoin:round;stroke-miterlimit:4.0001;}
	.st8{fill:none;stroke:#000000;stroke-width:2.13;stroke-linecap:round;stroke-linejoin:round;}
	.st9{clip-path:url(#SVGID_00000014612375850469961350000001811857499777453985_);}
	.st10{fill:none;stroke:#FF0339;stroke-miterlimit:10;}
	.st11{enable-background:new    ;}
</style>
<g transform="translate(-447.900 -184.006)">
<g xmlns="http://www.w3.org/2000/svg">
	<path class="st0" d="M477,203.8v8.5c0,2.9-2.4,5.3-5.3,5.3h-17c-2.9,0-5.3-2.4-5.3-5.3v-17c0-2.9,2.4-5.3,5.3-5.3h8.5" />
	<line class="st0" x1="481.4" y1="198.9" x2="477.5" y2="198.9" />
	<line class="st0" x1="479.4" y1="196.9" x2="479.4" y2="200.9" />
	<path class="st0" d="M468.3,188.6c-1.4,2.5-1.1,5.6,0.8,7.7c0.5,0.6,1.2,1,2,1c0.2,0,0.4,0,0.6-0.2c0.8-0.3,0.7-1.2,1.1-1.8   s2.8,0.2,4.9-0.8c1.1-0.6,1.9-1.7,2.2-2.9c0.3-1.5-0.2-3.1-1.2-4.3c-1.8-2.1-5-2.1-7.1-1.3C470.2,186.5,469.1,187.4,468.3,188.6z" />
	
		<rect x="472.1" y="189.7" transform="matrix(0.9511 -0.309 0.309 0.9511 -35.546 155.1923)" class="st7" width="0.2" height="0.2" />
	
		<rect x="475.7" y="188.7" transform="matrix(0.9511 -0.309 0.309 0.9511 -35.0569 156.2615)" class="st7" width="0.2" height="0.2" />
	
		<rect x="470.5" y="192.8" transform="matrix(0.9511 -0.309 0.309 0.9511 -36.5761 154.8552)" class="st7" width="0.2" height="0.2" />
	<path class="st0" d="M462.8,203.8" />
	<line class="st0" x1="469" y1="203.2" x2="470.8" y2="201.4" />
	<line class="st0" x1="463.2" y1="200.8" x2="463.2" y2="198.3" />
	<line class="st0" x1="457.4" y1="203.2" x2="455.6" y2="201.4" />
	<rect x="455.8" y="207" class="st0" width="14.7" height="4.1" />
</g>

</g>
</svg>
