<?xml version="1.0" encoding="utf-8"?>
<svg xmlns="http://www.w3.org/2000/svg" viewBox="27 191 28 29" width="30.6" height="30.6">
  <path fill="none" stroke="#64748B" stroke-width="2.13" stroke-linecap="round" stroke-linejoin="round" d="M32.5,191.9h17c2.9,0,5.3,2.4,5.3,5.3v17c0,2.9-2.4,5.3-5.3,5.3h-17c-2.9,0-5.3-2.4-5.3-5.3v-17 C27.2,194.3,29.6,191.9,32.5,191.9z"/>
  <path fill="none" stroke="#64748B" stroke-width="2.13" stroke-linecap="round" stroke-linejoin="round" d="M33.1,201.7c-2.7,4.2-1,9.7,1.1,11.6c0.8,0.9,1.9,1.5,3.1,1.5c0.3,0,0.6,0,0.8-0.2c1.2-0.5,1-1.8,1.6-2.7s4.3,0.3,7.4-1.2c1.7-0.9,2.9-2.5,3.3-4.4c0.9-3.4-1.5-6.2-1.8-6.5c-2.7-3.1-7.5-3.1-10.7-1.9C35.9,198.6,34.2,200,33.1,201.7z"/>
  <rect x="38.7" y="203.8" transform="matrix(0.9511 -0.309 0.309 0.9511 -61.1328 22.0065)" fill="#64748B" stroke="#64748B" stroke-width="2.1301" stroke-linecap="round" stroke-linejoin="round" width="0.4" height="0.4"/>
  <rect x="36.3" y="208.4" transform="matrix(0.9511 -0.309 0.309 0.9511 -62.6692 21.4837)" fill="#64748B" stroke="#64748B" stroke-width="2.1301" stroke-linecap="round" stroke-linejoin="round" width="0.4" height="0.4"/>
  <rect x="43.6" y="202.1" transform="matrix(0.9511 -0.309 0.309 0.9511 -60.372 23.4351)" fill="#64748B" stroke="#64748B" stroke-width="2.1301" stroke-linecap="round" stroke-linejoin="round" width="0.4" height="0.4"/>
</svg>
