<?xml version="1.0" encoding="utf-8"?>
<svg xmlns="http://www.w3.org/2000/svg" viewBox="186.5 181.5 39 39" width="36" height="36">
  <path fill="none" stroke="#64748B" stroke-width="2.13" stroke-linecap="round" stroke-linejoin="round" d="M222,203v8.5c0,2.9-2.4,5.3-5.3,5.3h-17.1c-2.9,0-5.2-2.3-5.2-5.2v-0.1v-17.1c0-2.9,2.3-5.2,5.2-5.2l0,0h8.6"/>
  <line x1="209.6" y1="196.7" x2="210.1" y2="194.5" fill="none" stroke="#64748B" stroke-width="2.13" stroke-linecap="round" stroke-linejoin="round"/>
  <line x1="203.9" y1="197.5" x2="202.8" y2="195.6" fill="none" stroke="#64748B" stroke-width="2.13" stroke-linecap="round" stroke-linejoin="round"/>
  <line x1="200.5" y1="202.1" x2="198.3" y2="201.5" fill="none" stroke="#64748B" stroke-width="2.13" stroke-linecap="round" stroke-linejoin="round"/>
  <line x1="201.3" y1="207.7" x2="199.4" y2="208.9" fill="none" stroke="#64748B" stroke-width="2.13" stroke-linecap="round" stroke-linejoin="round"/>
  <path fill="none" stroke="#64748B" stroke-width="2.13" stroke-linecap="round" stroke-linejoin="round" d="M220,215.6l-3.8-2.6c-1.2,0.9-2.7,1.4-4.2,1.4c-3.7-0.1-6.7-3.1-6.8-6.8c0-0.5,0.1-0.9,0.2-1.4l4.5,3.1l2.7-4l-4.6-3.2c1.2-0.8,2.6-1.3,4-1.3c3.7-0.1,6.7,2.9,6.8,6.6c0,0.1,0,0.1,0,0.2c0,0.4,0,0.8-0.1,1.2l2.9,2"/>
  <path fill="none" stroke="#64748B" stroke-width="2.13" stroke-linecap="round" stroke-linejoin="round" d="M221.6,189.2v7.6"/>
  <path fill="none" stroke="#64748B" stroke-width="2.13" stroke-linecap="round" stroke-linejoin="round" d="M221.6,192.8h-4.3"/>
  <path fill="none" stroke="#64748B" stroke-width="2.13" stroke-linecap="round" stroke-linejoin="round" d="M217.3,189.2v3.6"/>
</svg>
