<?xml version="1.0" encoding="UTF-8"?>
<svg xmlns="http://www.w3.org/2000/svg" xmlns:xlink="http://www.w3.org/1999/xlink" viewBox="0 0 30.600 30.600" width="30.600" height="30.600">
<style type="text/css">
	.st0{fill:none;stroke:#64748B;stroke-width:2.13;stroke-linecap:round;stroke-linejoin:round;}
	.st1{fill:#64748B;stroke:#64748B;stroke-width:2.13;stroke-linecap:round;stroke-linejoin:round;}
	.st2{stroke:#64748B;stroke-width:2.13;stroke-linecap:round;stroke-linejoin:round;}
	.st3{fill:none;stroke:#64748B;stroke-width:2.13;stroke-linecap:round;stroke-linejoin:round;stroke-miterlimit:4;}
	.st4{fill:none;stroke:#64748B;stroke-width:1.98;stroke-linecap:round;stroke-linejoin:round;}
	.st5{fill:#64748B;stroke:#64748B;stroke-width:1.98;stroke-linecap:round;stroke-linejoin:round;}
	.st6{stroke:#64748B;stroke-width:1.98;stroke-linecap:round;stroke-linejoin:round;}
	.st7{stroke:#64748B;stroke-width:2.1301;stroke-linecap:round;stroke-linejoin:round;stroke-miterlimit:4.0001;}
	.st8{fill:none;stroke:#000000;stroke-width:2.13;stroke-linecap:round;stroke-linejoin:round;}
	.st9{clip-path:url(#SVGID_00000014612375850469961350000001811857499777453985_);}
	.st10{fill:none;stroke:#FF0339;stroke-miterlimit:10;}
	.st11{enable-background:new    ;}
</style>
<g transform="translate(-374.200 -280.300)">
<g xmlns="http://www.w3.org/2000/svg">
	<path class="st0" d="M398,309.4h-17c-2.9,0-5.3-2.4-5.3-5.3v-17c0-2.9,2.4-5.3,5.3-5.3h17c2.9,0,5.3,2.4,5.3,5.3v17   C403.3,307,400.9,309.4,398,309.4z" />
	<line class="st0" x1="380.5" y1="304.7" x2="398.6" y2="286.6" />
	<rect x="392.2" y="298.4" class="st0" width="6.4" height="6.4" />
	<path class="st0" d="M389.3,291.2c-0.9-0.7-2-1-3.1-1.1c-1.5,0.1-2.9,0.6-4,1.5c-2.4,1.9-2.8,6.4-0.8,11" />
	<path class="st0" d="M389.3,291.3c0.8-0.5,1.7-0.9,2.7-1c1-0.2,1.9-0.2,2.9,0" />
	<path class="st0" d="M389.8,289.9l0.2-3.2" />
	<path class="st0" d="M389.9,288c-0.1-0.1,0.5-0.9,1.2-1.4s3.1-0.8,3.1-0.6s-0.3,0.1-1.4,0.7S390,288.2,389.9,288z" />
</g>

</g>
</svg>
