<?xml version="1.0" encoding="UTF-8"?>
<svg xmlns="http://www.w3.org/2000/svg" xmlns:xlink="http://www.w3.org/1999/xlink" viewBox="0 0 30.600 30.600" width="30.600" height="30.600">
<style type="text/css">
	.st0{fill:none;stroke:#64748B;stroke-width:2.13;stroke-linecap:round;stroke-linejoin:round;}
	.st1{fill:#64748B;stroke:#64748B;stroke-width:2.13;stroke-linecap:round;stroke-linejoin:round;}
	.st2{stroke:#64748B;stroke-width:2.13;stroke-linecap:round;stroke-linejoin:round;}
	.st3{fill:none;stroke:#64748B;stroke-width:2.13;stroke-linecap:round;stroke-linejoin:round;stroke-miterlimit:4;}
	.st4{fill:none;stroke:#64748B;stroke-width:1.98;stroke-linecap:round;stroke-linejoin:round;}
	.st5{fill:#64748B;stroke:#64748B;stroke-width:1.98;stroke-linecap:round;stroke-linejoin:round;}
	.st6{stroke:#64748B;stroke-width:1.98;stroke-linecap:round;stroke-linejoin:round;}
	.st7{stroke:#64748B;stroke-width:2.1301;stroke-linecap:round;stroke-linejoin:round;stroke-miterlimit:4.0001;}
	.st8{fill:none;stroke:#000000;stroke-width:2.13;stroke-linecap:round;stroke-linejoin:round;}
	.st9{clip-path:url(#SVGID_00000014612375850469961350000001811857499777453985_);}
	.st10{fill:none;stroke:#FF0339;stroke-miterlimit:10;}
	.st11{enable-background:new    ;}
</style>
<g transform="translate(-25.700 -190.400)">
<g xmlns="http://www.w3.org/2000/svg">
	<path class="st0" d="M32.5,191.9h17c2.9,0,5.3,2.4,5.3,5.3v17c0,2.9-2.4,5.3-5.3,5.3h-17c-2.9,0-5.3-2.4-5.3-5.3v-17   C27.2,194.3,29.6,191.9,32.5,191.9z" />
	<path class="st0" d="M33.1,201.7c-2.7,4.2-1,9.7,1.1,11.6c0.8,0.9,1.9,1.5,3.1,1.5c0.3,0,0.6,0,0.8-0.2c1.2-0.5,1-1.8,1.6-2.7   s4.3,0.3,7.4-1.2c1.7-0.9,2.9-2.5,3.3-4.4c0.9-3.4-1.5-6.2-1.8-6.5c-2.7-3.1-7.5-3.1-10.7-1.9C35.9,198.6,34.2,200,33.1,201.7z" />
	<rect x="38.7" y="203.8" transform="matrix(0.9511 -0.309 0.309 0.9511 -61.1328 22.0065)" class="st7" width="0.4" height="0.4" />
	<rect x="36.3" y="208.4" transform="matrix(0.9511 -0.309 0.309 0.9511 -62.6692 21.4837)" class="st7" width="0.4" height="0.4" />
	<rect x="43.6" y="202.1" transform="matrix(0.9511 -0.309 0.309 0.9511 -60.372 23.4351)" class="st7" width="0.4" height="0.4" />
</g>

</g>
</svg>
