<?xml version="1.0" encoding="UTF-8"?>
<svg xmlns="http://www.w3.org/2000/svg" xmlns:xlink="http://www.w3.org/1999/xlink" viewBox="0 0 35.000 35.094" width="35.000" height="35.094">
<style type="text/css">
	.st0{fill:none;stroke:#64748B;stroke-width:2.13;stroke-linecap:round;stroke-linejoin:round;}
	.st1{fill:#64748B;stroke:#64748B;stroke-width:2.13;stroke-linecap:round;stroke-linejoin:round;}
	.st2{stroke:#64748B;stroke-width:2.13;stroke-linecap:round;stroke-linejoin:round;}
	.st3{fill:none;stroke:#64748B;stroke-width:2.13;stroke-linecap:round;stroke-linejoin:round;stroke-miterlimit:4;}
	.st4{fill:none;stroke:#64748B;stroke-width:1.98;stroke-linecap:round;stroke-linejoin:round;}
	.st5{fill:#64748B;stroke:#64748B;stroke-width:1.98;stroke-linecap:round;stroke-linejoin:round;}
	.st6{stroke:#64748B;stroke-width:1.98;stroke-linecap:round;stroke-linejoin:round;}
	.st7{stroke:#64748B;stroke-width:2.1301;stroke-linecap:round;stroke-linejoin:round;stroke-miterlimit:4.0001;}
	.st8{fill:none;stroke:#000000;stroke-width:2.13;stroke-linecap:round;stroke-linejoin:round;}
	.st9{clip-path:url(#SVGID_00000014612375850469961350000001811857499777453985_);}
	.st10{fill:none;stroke:#FF0339;stroke-miterlimit:10;}
	.st11{enable-background:new    ;}
</style>
<g transform="translate(-527.000 -140.106)">
<g xmlns="http://www.w3.org/2000/svg">
	<path class="st0" d="M556.1,159.9v8.5c0,2.9-2.4,5.3-5.3,5.3h-17c-2.9,0-5.3-2.4-5.3-5.3v-17c0-2.9,2.4-5.3,5.3-5.3h8.5" />
	<path class="st0" d="M542.3,159.9" />
	<rect x="540.3" y="157.9" class="st0" width="3.9" height="3.9" />
	<line class="st0" x1="548.2" y1="159.9" x2="550" y2="159.9" />
	<line class="st0" x1="542.3" y1="153.9" x2="542.3" y2="152.1" />
	<line class="st0" x1="538" y1="155.6" x2="536.8" y2="154.4" />
	<line class="st0" x1="536.3" y1="159.9" x2="534.5" y2="159.9" />
	<line class="st0" x1="538" y1="164.1" x2="536.8" y2="165.4" />
	<line class="st0" x1="542.3" y1="165.8" x2="542.3" y2="167.6" />
	<line class="st0" x1="546.5" y1="164.1" x2="547.8" y2="165.4" />
	<line class="st0" x1="548.2" y1="159.9" x2="550" y2="159.9" />
	<line class="st0" x1="560.5" y1="155" x2="556.5" y2="155" />
	<path class="st0" d="M547.4,144.6c-1.4,2.5-1.1,5.6,0.7,7.8c0.5,0.6,1.3,0.9,2.1,1l0.6-0.2c0.8-0.3,0.7-1.2,1.1-1.8   c0.4-0.6,2.8,0.2,4.9-0.8c1.1-0.6,1.9-1.7,2.2-2.9c0.3-1.5-0.2-3.1-1.2-4.3c-1.8-2.1-5-2.1-7.1-1.3   C549.3,142.6,548.2,143.4,547.4,144.6z" />
	
		<rect x="551.1" y="145.7" transform="matrix(0.9511 -0.309 0.309 0.9511 -18.0876 177.4522)" class="st7" width="0.2" height="0.2" />
	
		<rect x="549.5" y="148.9" transform="matrix(0.9511 -0.309 0.309 0.9511 -19.1513 177.1214)" class="st7" width="0.2" height="0.2" />
	
		<rect x="554.5" y="144.7" transform="matrix(0.9511 -0.309 0.309 0.9511 -17.6099 178.4599)" class="st7" width="0.2" height="0.2" />
</g>

</g>
</svg>
