<?xml version="1.0" encoding="UTF-8"?>
<svg xmlns="http://www.w3.org/2000/svg" xmlns:xlink="http://www.w3.org/1999/xlink" viewBox="0 0 30.600 30.600" width="30.600" height="30.600">
<style type="text/css">
	.st0{fill:none;stroke:#64748B;stroke-width:2.13;stroke-linecap:round;stroke-linejoin:round;}
	.st1{fill:#64748B;stroke:#64748B;stroke-width:2.13;stroke-linecap:round;stroke-linejoin:round;}
	.st2{stroke:#64748B;stroke-width:2.13;stroke-linecap:round;stroke-linejoin:round;}
	.st3{fill:none;stroke:#64748B;stroke-width:2.13;stroke-linecap:round;stroke-linejoin:round;stroke-miterlimit:4;}
	.st4{fill:none;stroke:#64748B;stroke-width:1.98;stroke-linecap:round;stroke-linejoin:round;}
	.st5{fill:#64748B;stroke:#64748B;stroke-width:1.98;stroke-linecap:round;stroke-linejoin:round;}
	.st6{stroke:#64748B;stroke-width:1.98;stroke-linecap:round;stroke-linejoin:round;}
	.st7{stroke:#64748B;stroke-width:2.1301;stroke-linecap:round;stroke-linejoin:round;stroke-miterlimit:4.0001;}
	.st8{fill:none;stroke:#000000;stroke-width:2.13;stroke-linecap:round;stroke-linejoin:round;}
	.st9{clip-path:url(#SVGID_00000014612375850469961350000001811857499777453985_);}
	.st10{fill:none;stroke:#FF0339;stroke-miterlimit:10;}
	.st11{enable-background:new    ;}
</style>
<g transform="translate(-67.500 -141.900)">
<g xmlns="http://www.w3.org/2000/svg">
	<path class="st0" d="M85.2,163v1.3c0,0.8-0.7,1.5-1.5,1.5h-6.9c-0.8,0-1.5-0.7-1.6-1.5v-11.4c0.1-0.8,0.8-1.5,1.6-1.5h3.7v10.1   c-0.1,0.8,0.5,1.4,1.3,1.5c0.1,0,0.1,0,0.2,0L85.2,163L85.2,163z" />
	<path class="st0" d="M90.5,150.1v11.4c0,0.8-0.7,1.5-1.5,1.5h-0.1H82c-0.8,0.1-1.4-0.5-1.5-1.3c0-0.1,0-0.1,0-0.2v-11.4   c0-0.8,0.7-1.5,1.5-1.5h6.9C89.7,148.6,90.4,149.3,90.5,150.1z" />
	<path class="st0" d="M74.3,143.4h17c2.9,0,5.3,2.4,5.3,5.3v17c0,2.9-2.4,5.3-5.3,5.3h-17c-2.9,0-5.3-2.4-5.3-5.3v-17   C69,145.8,71.4,143.4,74.3,143.4z" />
</g>

</g>
</svg>
