<?xml version="1.0" encoding="utf-8"?>
<svg xmlns="http://www.w3.org/2000/svg" viewBox="324 275 39 39" width="36" height="36">
  <path fill="none" stroke="#64748B" stroke-width="2.13" stroke-linecap="round" stroke-linejoin="round" d="M353.3,309.4h-17c-2.9,0-5.3-2.4-5.3-5.3v-17c0-2.9,2.4-5.3,5.3-5.3h17c2.9,0,5.3,2.4,5.3,5.3v17 C358.6,307,356.2,309.4,353.3,309.4z"/>
  <line x1="335.7" y1="304.7" x2="353.8" y2="286.6" fill="none" stroke="#64748B" stroke-width="2.13" stroke-linecap="round" stroke-linejoin="round"/>
  <rect x="351.8" y="302.4" fill="none" stroke="#64748B" stroke-width="2.13" stroke-linecap="round" stroke-linejoin="round" width="2" height="2"/>
  <rect x="351.8" y="296.3" fill="none" stroke="#64748B" stroke-width="2.13" stroke-linecap="round" stroke-linejoin="round" width="2" height="2"/>
  <rect x="345.3" y="302.4" fill="none" stroke="#64748B" stroke-width="2.13" stroke-linecap="round" stroke-linejoin="round" width="2" height="2"/>
  <path fill="none" stroke="#64748B" stroke-width="2.13" stroke-linecap="round" stroke-linejoin="round" d="M338.3,286.3c-2.5,3.8-3.4,7.5-2.1,9.1c0.4,0.5,0.9,0.9,1.5,1.1c1.3,0.4,2.7,0,3.6-1.1c0.7-0.8,0.9-2,0.5-3 c-0.9-1.7-3-2.3-4.7-1.4c-0.8,0.5-1.3,1.2-1.5,2.1"/>
</svg>
