<?xml version="1.0" encoding="UTF-8"?>
<svg xmlns="http://www.w3.org/2000/svg" xmlns:xlink="http://www.w3.org/1999/xlink" viewBox="0 0 31.400 30.600" width="31.400" height="30.600">
<style type="text/css">
	.st0{fill:none;stroke:#64748B;stroke-width:2.13;stroke-linecap:round;stroke-linejoin:round;}
	.st1{fill:#64748B;stroke:#64748B;stroke-width:2.13;stroke-linecap:round;stroke-linejoin:round;}
	.st2{stroke:#64748B;stroke-width:2.13;stroke-linecap:round;stroke-linejoin:round;}
	.st3{fill:none;stroke:#64748B;stroke-width:2.13;stroke-linecap:round;stroke-linejoin:round;stroke-miterlimit:4;}
	.st4{fill:none;stroke:#64748B;stroke-width:1.98;stroke-linecap:round;stroke-linejoin:round;}
	.st5{fill:#64748B;stroke:#64748B;stroke-width:1.98;stroke-linecap:round;stroke-linejoin:round;}
	.st6{stroke:#64748B;stroke-width:1.98;stroke-linecap:round;stroke-linejoin:round;}
	.st7{stroke:#64748B;stroke-width:2.1301;stroke-linecap:round;stroke-linejoin:round;stroke-miterlimit:4.0001;}
	.st8{fill:none;stroke:#000000;stroke-width:2.13;stroke-linecap:round;stroke-linejoin:round;}
	.st9{clip-path:url(#SVGID_00000014612375850469961350000001811857499777453985_);}
	.st10{fill:none;stroke:#FF0339;stroke-miterlimit:10;}
	.st11{enable-background:new    ;}
</style>
<g transform="translate(-619.400 -144.600)">
<g xmlns="http://www.w3.org/2000/svg">
	<path class="st0" d="M648.5,159.9v8.5c0,2.9-2.4,5.3-5.3,5.3h-17c-2.9,0-5.3-2.4-5.3-5.3v-17c0-2.9,2.4-5.3,5.3-5.3h8.5" />
	<path class="st0" d="M634.7,159.9" />
	<rect x="632.8" y="157.9" class="st0" width="3.9" height="3.9" />
	<line class="st0" x1="640.7" y1="159.9" x2="642.5" y2="159.9" />
	<line class="st0" x1="638.9" y1="155.6" x2="640.2" y2="154.4" />
	<line class="st0" x1="634.7" y1="153.9" x2="634.7" y2="152.1" />
	<line class="st0" x1="630.5" y1="155.6" x2="629.2" y2="154.4" />
	<line class="st0" x1="628.7" y1="159.9" x2="626.9" y2="159.9" />
	<line class="st0" x1="630.5" y1="164.1" x2="629.2" y2="165.4" />
	<line class="st0" x1="634.7" y1="165.8" x2="634.7" y2="167.6" />
	<line class="st0" x1="638.9" y1="164.1" x2="640.2" y2="165.4" />
	<line class="st0" x1="640.7" y1="159.9" x2="642.5" y2="159.9" />
	<line class="st0" x1="649.3" y1="149.7" x2="643.2" y2="149.7" />
</g>

</g>
</svg>
