<?xml version="1.0" encoding="utf-8"?>
<svg xmlns="http://www.w3.org/2000/svg" viewBox="103 181.5 39 39" width="36" height="36">
  <path fill="none" stroke="#64748B" stroke-width="2.13" stroke-linecap="round" stroke-linejoin="round" d="M138.4,203v8.5c0,2.9-2.4,5.3-5.3,5.3h-17c-2.9,0-5.3-2.4-5.3-5.3v-17.1c0-2.9,2.3-5.2,5.2-5.2h0.1h8.5"/>
  <line x1="126" y1="196.7" x2="126.6" y2="194.5" fill="none" stroke="#64748B" stroke-width="2.13" stroke-linecap="round" stroke-linejoin="round"/>
  <line x1="120.4" y1="197.5" x2="119.2" y2="195.6" fill="none" stroke="#64748B" stroke-width="2.13" stroke-linecap="round" stroke-linejoin="round"/>
  <line x1="117" y1="202.1" x2="114.8" y2="201.5" fill="none" stroke="#64748B" stroke-width="2.13" stroke-linecap="round" stroke-linejoin="round"/>
  <line x1="117.8" y1="207.7" x2="115.8" y2="208.9" fill="none" stroke="#64748B" stroke-width="2.13" stroke-linecap="round" stroke-linejoin="round"/>
  <path fill="none" stroke="#64748B" stroke-width="2.13" stroke-linecap="round" stroke-linejoin="round" d="M136.2,215.4l-3.6-2.4c-1.2,0.9-2.6,1.4-4.1,1.4c-3.7-0.1-6.7-3.1-6.8-6.8c0-0.5,0.1-1,0.1-1.4l4.6,3.1l2.7-4l-4.6-3.2c1.2-0.8,2.6-1.3,4-1.3c3.7-0.1,6.7,2.9,6.8,6.6c0,0.1,0,0.1,0,0.2c0,0.4,0,0.8-0.1,1.2l2.9,2"/>
  <path fill="none" stroke="#64748B" stroke-width="2.13" stroke-linecap="round" stroke-linejoin="round" d="M133.8,189.2h4.2v3.6h-4.2v4h4.2"/>
</svg>
