<?xml version="1.0" encoding="UTF-8"?>
<svg xmlns="http://www.w3.org/2000/svg" xmlns:xlink="http://www.w3.org/1999/xlink" viewBox="0 0 30.600 30.600" width="30.600" height="30.600">
<style type="text/css">
	.st0{fill:none;stroke:#64748B;stroke-width:2.13;stroke-linecap:round;stroke-linejoin:round;}
	.st1{fill:#64748B;stroke:#64748B;stroke-width:2.13;stroke-linecap:round;stroke-linejoin:round;}
	.st2{stroke:#64748B;stroke-width:2.13;stroke-linecap:round;stroke-linejoin:round;}
	.st3{fill:none;stroke:#64748B;stroke-width:2.13;stroke-linecap:round;stroke-linejoin:round;stroke-miterlimit:4;}
	.st4{fill:none;stroke:#64748B;stroke-width:1.98;stroke-linecap:round;stroke-linejoin:round;}
	.st5{fill:#64748B;stroke:#64748B;stroke-width:1.98;stroke-linecap:round;stroke-linejoin:round;}
	.st6{stroke:#64748B;stroke-width:1.98;stroke-linecap:round;stroke-linejoin:round;}
	.st7{stroke:#64748B;stroke-width:2.1301;stroke-linecap:round;stroke-linejoin:round;stroke-miterlimit:4.0001;}
	.st8{fill:none;stroke:#000000;stroke-width:2.13;stroke-linecap:round;stroke-linejoin:round;}
	.st9{clip-path:url(#SVGID_00000014612375850469961350000001811857499777453985_);}
	.st10{fill:none;stroke:#FF0339;stroke-miterlimit:10;}
	.st11{enable-background:new    ;}
</style>
<g transform="translate(-109.300 -141.900)">
<g xmlns="http://www.w3.org/2000/svg">
	<path class="st0" d="M128.6,150.1v5.2h-4.1c-0.6-0.1-1.1,0.4-1.2,1v0.1v6.7H120c-0.8,0-1.5-0.7-1.5-1.5v-11.5   c0-0.8,0.7-1.5,1.5-1.6h7.1C127.9,148.6,128.6,149.3,128.6,150.1z" />
	<path class="st0" d="M124.4,155.3h5.2c0.6,0,1.1,0.5,1.1,1.1v8.4c0,0.6-0.5,1.1-1.1,1.1h-5.2c-0.6,0-1.1-0.5-1.1-1.1v-8.4   C123.3,155.8,123.8,155.3,124.4,155.3z" />
	<path class="st0" d="M116.1,143.4h17c2.9,0,5.3,2.4,5.3,5.3v17c0,2.9-2.4,5.3-5.3,5.3h-17c-2.9,0-5.3-2.4-5.3-5.3v-17   C110.8,145.8,113.2,143.4,116.1,143.4z" />
</g>

</g>
</svg>
