<?xml version="1.0" encoding="utf-8"?>
<svg xmlns="http://www.w3.org/2000/svg" viewBox="663 143 31 31" width="30.6" height="30.6">
  <path fill="none" stroke="#64748B" stroke-width="2.13" stroke-linecap="round" stroke-linejoin="round" d="M691.1,159.9v8.5c0,2.9-2.4,5.3-5.3,5.3h-17.1c-2.9,0-5.2-2.3-5.2-5.2v-0.1v-17c-0.1-2.9,2.2-5.2,5.1-5.3h0.1h8.6"/>
  <rect x="675.3" y="157.9" fill="none" stroke="#64748B" stroke-width="2.13" stroke-linecap="round" stroke-linejoin="round" width="3.9" height="3.9"/>
  <line x1="683.2" y1="159.9" x2="685" y2="159.9" fill="none" stroke="#64748B" stroke-width="2.13" stroke-linecap="round" stroke-linejoin="round"/>
  <line x1="681.4" y1="155.6" x2="682.7" y2="154.4" fill="none" stroke="#64748B" stroke-width="2.13" stroke-linecap="round" stroke-linejoin="round"/>
  <line x1="677.2" y1="153.9" x2="677.2" y2="152.1" fill="none" stroke="#64748B" stroke-width="2.13" stroke-linecap="round" stroke-linejoin="round"/>
  <line x1="673" y1="155.6" x2="671.7" y2="154.4" fill="none" stroke="#64748B" stroke-width="2.13" stroke-linecap="round" stroke-linejoin="round"/>
  <line x1="671.3" y1="159.9" x2="669.4" y2="159.9" fill="none" stroke="#64748B" stroke-width="2.13" stroke-linecap="round" stroke-linejoin="round"/>
  <line x1="673" y1="164.1" x2="671.7" y2="165.4" fill="none" stroke="#64748B" stroke-width="2.13" stroke-linecap="round" stroke-linejoin="round"/>
  <line x1="677.2" y1="165.8" x2="677.2" y2="167.6" fill="none" stroke="#64748B" stroke-width="2.13" stroke-linecap="round" stroke-linejoin="round"/>
  <line x1="681.4" y1="164.1" x2="682.7" y2="165.4" fill="none" stroke="#64748B" stroke-width="2.13" stroke-linecap="round" stroke-linejoin="round"/>
  <line x1="683.2" y1="159.9" x2="685" y2="159.9" fill="none" stroke="#64748B" stroke-width="2.13" stroke-linecap="round" stroke-linejoin="round"/>
  <line x1="691.8" y1="149.7" x2="685.8" y2="149.7" fill="none" stroke="#64748B" stroke-width="2.13" stroke-linecap="round" stroke-linejoin="round"/>
  <line x1="688.8" y1="146.6" x2="688.8" y2="152.7" fill="none" stroke="#64748B" stroke-width="2.13" stroke-linecap="round" stroke-linejoin="round"/>
</svg>
