<?xml version="1.0" encoding="UTF-8"?>
<svg xmlns="http://www.w3.org/2000/svg" xmlns:xlink="http://www.w3.org/1999/xlink" viewBox="0 0 30.600 32.600" width="30.600" height="32.600">
<style type="text/css">
	.st0{fill:none;stroke:#64748B;stroke-width:2.13;stroke-linecap:round;stroke-linejoin:round;}
	.st1{fill:#64748B;stroke:#64748B;stroke-width:2.13;stroke-linecap:round;stroke-linejoin:round;}
	.st2{stroke:#64748B;stroke-width:2.13;stroke-linecap:round;stroke-linejoin:round;}
	.st3{fill:none;stroke:#64748B;stroke-width:2.13;stroke-linecap:round;stroke-linejoin:round;stroke-miterlimit:4;}
	.st4{fill:none;stroke:#64748B;stroke-width:1.98;stroke-linecap:round;stroke-linejoin:round;}
	.st5{fill:#64748B;stroke:#64748B;stroke-width:1.98;stroke-linecap:round;stroke-linejoin:round;}
	.st6{stroke:#64748B;stroke-width:1.98;stroke-linecap:round;stroke-linejoin:round;}
	.st7{stroke:#64748B;stroke-width:2.1301;stroke-linecap:round;stroke-linejoin:round;stroke-miterlimit:4.0001;}
	.st8{fill:none;stroke:#000000;stroke-width:2.13;stroke-linecap:round;stroke-linejoin:round;}
	.st9{clip-path:url(#SVGID_00000014612375850469961350000001811857499777453985_);}
	.st10{fill:none;stroke:#FF0339;stroke-miterlimit:10;}
	.st11{enable-background:new    ;}
</style>
<g transform="translate(-26.700 -236.900)">
<g xmlns="http://www.w3.org/2000/svg">
	<path class="st0" d="M55.8,254.2v8.5c0,2.9-2.4,5.3-5.3,5.3h-17c-2.9,0-5.3-2.4-5.3-5.3v-17c0-2.9,2.4-5.3,5.3-5.3H42" />
	<polyline class="st0" points="52.7,240.8 46.7,240.8 49.1,238.4  " />
	<polyline class="st0" points="49.5,244.8 55.5,244.8 53.1,247.2  " />
	<path class="st0" d="M42,254.2" />
	<line class="st0" x1="48.2" y1="253.5" x2="50" y2="251.8" />
	<line class="st0" x1="42.4" y1="251.1" x2="42.4" y2="248.6" />
	<line class="st0" x1="36.6" y1="253.5" x2="34.8" y2="251.8" />
	<rect x="33.8" y="257.6" class="st0" width="3.5" height="3.5" />
	<rect x="40.6" y="257.6" class="st0" width="3.5" height="3.5" />
	<rect x="47.5" y="257.6" class="st0" width="3.5" height="3.5" />
</g>

</g>
</svg>
