<?xml version="1.0" encoding="UTF-8"?>
<svg xmlns="http://www.w3.org/2000/svg" xmlns:xlink="http://www.w3.org/1999/xlink" viewBox="0 0 30.603 32.600" width="30.603" height="32.600">
<style type="text/css">
	.st0{fill:none;stroke:#64748B;stroke-width:2.13;stroke-linecap:round;stroke-linejoin:round;}
	.st1{fill:#64748B;stroke:#64748B;stroke-width:2.13;stroke-linecap:round;stroke-linejoin:round;}
	.st2{stroke:#64748B;stroke-width:2.13;stroke-linecap:round;stroke-linejoin:round;}
	.st3{fill:none;stroke:#64748B;stroke-width:2.13;stroke-linecap:round;stroke-linejoin:round;stroke-miterlimit:4;}
	.st4{fill:none;stroke:#64748B;stroke-width:1.98;stroke-linecap:round;stroke-linejoin:round;}
	.st5{fill:#64748B;stroke:#64748B;stroke-width:1.98;stroke-linecap:round;stroke-linejoin:round;}
	.st6{stroke:#64748B;stroke-width:1.98;stroke-linecap:round;stroke-linejoin:round;}
	.st7{stroke:#64748B;stroke-width:2.1301;stroke-linecap:round;stroke-linejoin:round;stroke-miterlimit:4.0001;}
	.st8{fill:none;stroke:#000000;stroke-width:2.13;stroke-linecap:round;stroke-linejoin:round;}
	.st9{clip-path:url(#SVGID_00000014612375850469961350000001811857499777453985_);}
	.st10{fill:none;stroke:#FF0339;stroke-miterlimit:10;}
	.st11{enable-background:new    ;}
</style>
<g transform="translate(-68.497 -236.900)">
<g xmlns="http://www.w3.org/2000/svg">
	<path class="st0" d="M83.3,254.2" />
	<line class="st0" x1="89.5" y1="253.5" x2="91.3" y2="251.8" />
	<line class="st0" x1="83.7" y1="251.1" x2="83.7" y2="248.6" />
	<line class="st0" x1="77.9" y1="253.5" x2="76.1" y2="251.8" />
	<rect x="75.1" y="257.6" class="st0" width="3.5" height="3.5" />
	<rect x="82" y="257.6" class="st0" width="3.5" height="3.5" />
	<rect x="88.8" y="257.6" class="st0" width="3.5" height="3.5" />
	<path class="st0" d="M97.6,254.2v8.5c0,2.9-2.4,5.3-5.3,5.3H75.2c-2.9,0-5.2-2.3-5.2-5.2v-0.1v-17c-0.1-2.9,2.2-5.2,5.1-5.3h0.1   h8.6" />
	<polyline class="st0" points="96.7,240.8 90.7,240.8 93.1,238.4  " />
</g>

</g>
</svg>
