<?xml version="1.0" encoding="UTF-8"?>
<svg xmlns="http://www.w3.org/2000/svg" xmlns:xlink="http://www.w3.org/1999/xlink" viewBox="0 0 30.600 30.600" width="30.600" height="30.600">
<style type="text/css">
	.st0{fill:none;stroke:#64748B;stroke-width:2.13;stroke-linecap:round;stroke-linejoin:round;}
	.st1{fill:#64748B;stroke:#64748B;stroke-width:2.13;stroke-linecap:round;stroke-linejoin:round;}
	.st2{stroke:#64748B;stroke-width:2.13;stroke-linecap:round;stroke-linejoin:round;}
	.st3{fill:none;stroke:#64748B;stroke-width:2.13;stroke-linecap:round;stroke-linejoin:round;stroke-miterlimit:4;}
	.st4{fill:none;stroke:#64748B;stroke-width:1.98;stroke-linecap:round;stroke-linejoin:round;}
	.st5{fill:#64748B;stroke:#64748B;stroke-width:1.98;stroke-linecap:round;stroke-linejoin:round;}
	.st6{stroke:#64748B;stroke-width:1.98;stroke-linecap:round;stroke-linejoin:round;}
	.st7{stroke:#64748B;stroke-width:2.1301;stroke-linecap:round;stroke-linejoin:round;stroke-miterlimit:4.0001;}
	.st8{fill:none;stroke:#000000;stroke-width:2.13;stroke-linecap:round;stroke-linejoin:round;}
	.st9{clip-path:url(#SVGID_00000014612375850469961350000001811857499777453985_);}
	.st10{fill:none;stroke:#FF0339;stroke-miterlimit:10;}
	.st11{enable-background:new    ;}
</style>
<g transform="translate(-110.200 -238.900)">
<g xmlns="http://www.w3.org/2000/svg">
	<path class="st0" d="M125.1,254.2" />
	<line class="st0" x1="131.3" y1="253.5" x2="133.1" y2="251.8" />
	<line class="st0" x1="125.5" y1="251.1" x2="125.5" y2="248.6" />
	<line class="st0" x1="119.7" y1="253.5" x2="117.9" y2="251.8" />
	<rect x="116.9" y="257.6" class="st0" width="3.5" height="3.5" />
	<rect x="123.7" y="257.6" class="st0" width="3.5" height="3.5" />
	<rect x="130.6" y="257.6" class="st0" width="3.5" height="3.5" />
	<path class="st0" d="M139.3,254.2v8.5c0,2.9-2.4,5.3-5.3,5.3h-17c-2.9,0-5.3-2.4-5.3-5.3v-17c0-2.9,2.4-5.3,5.3-5.3h8.5" />
	<polyline class="st0" points="132.4,240.8 138.4,240.8 136,243.2  " />
</g>

</g>
</svg>
