<?xml version="1.0" encoding="utf-8"?>
<svg xmlns="http://www.w3.org/2000/svg" viewBox="445 143 31 31" width="30.6" height="30.6">
  <path fill="none" stroke="#64748B" stroke-width="2.13" stroke-linecap="round" stroke-linejoin="round" d="M472.6,159.9v8.5c0,2.9-2.4,5.3-5.3,5.3h-17.1c-2.9,0-5.2-2.3-5.2-5.2v-0.1v-17c-0.1-2.9,2.2-5.2,5.1-5.3h0.1h8.6"/>
  <rect x="456.8" y="157.9" fill="none" stroke="#64748B" stroke-width="2.13" stroke-linecap="round" stroke-linejoin="round" width="3.9" height="3.9"/>
  <line x1="464.7" y1="159.9" x2="466.5" y2="159.9" fill="none" stroke="#64748B" stroke-width="2.13" stroke-linecap="round" stroke-linejoin="round"/>
  <line x1="462.9" y1="155.6" x2="464.2" y2="154.4" fill="none" stroke="#64748B" stroke-width="2.13" stroke-linecap="round" stroke-linejoin="round"/>
  <line x1="458.7" y1="153.9" x2="458.7" y2="152.1" fill="none" stroke="#64748B" stroke-width="2.13" stroke-linecap="round" stroke-linejoin="round"/>
  <line x1="454.5" y1="155.6" x2="453.2" y2="154.4" fill="none" stroke="#64748B" stroke-width="2.13" stroke-linecap="round" stroke-linejoin="round"/>
  <line x1="452.8" y1="159.9" x2="450.9" y2="159.9" fill="none" stroke="#64748B" stroke-width="2.13" stroke-linecap="round" stroke-linejoin="round"/>
  <line x1="454.5" y1="164.1" x2="453.2" y2="165.4" fill="none" stroke="#64748B" stroke-width="2.13" stroke-linecap="round" stroke-linejoin="round"/>
  <line x1="458.7" y1="165.8" x2="458.7" y2="167.6" fill="none" stroke="#64748B" stroke-width="2.13" stroke-linecap="round" stroke-linejoin="round"/>
  <line x1="462.9" y1="164.1" x2="464.2" y2="165.4" fill="none" stroke="#64748B" stroke-width="2.13" stroke-linecap="round" stroke-linejoin="round"/>
  <line x1="464.7" y1="159.9" x2="466.5" y2="159.9" fill="none" stroke="#64748B" stroke-width="2.13" stroke-linecap="round" stroke-linejoin="round"/>
  <polyline fill="none" stroke="#64748B" stroke-width="2.13" stroke-linecap="round" stroke-linejoin="round" points="471.7,146.5 465.7,146.5 468.1,144.1"/>
</svg>
