<?xml version="1.0" encoding="UTF-8"?>
<svg xmlns="http://www.w3.org/2000/svg" xmlns:xlink="http://www.w3.org/1999/xlink" viewBox="0 0 30.600 30.600" width="30.600" height="30.600">
<style type="text/css">
	.st0{fill:none;stroke:#64748B;stroke-width:2.13;stroke-linecap:round;stroke-linejoin:round;}
	.st1{fill:#64748B;stroke:#64748B;stroke-width:2.13;stroke-linecap:round;stroke-linejoin:round;}
	.st2{stroke:#64748B;stroke-width:2.13;stroke-linecap:round;stroke-linejoin:round;}
	.st3{fill:none;stroke:#64748B;stroke-width:2.13;stroke-linecap:round;stroke-linejoin:round;stroke-miterlimit:4;}
	.st4{fill:none;stroke:#64748B;stroke-width:1.98;stroke-linecap:round;stroke-linejoin:round;}
	.st5{fill:#64748B;stroke:#64748B;stroke-width:1.98;stroke-linecap:round;stroke-linejoin:round;}
	.st6{stroke:#64748B;stroke-width:1.98;stroke-linecap:round;stroke-linejoin:round;}
	.st7{stroke:#64748B;stroke-width:2.1301;stroke-linecap:round;stroke-linejoin:round;stroke-miterlimit:4.0001;}
	.st8{fill:none;stroke:#000000;stroke-width:2.13;stroke-linecap:round;stroke-linejoin:round;}
	.st9{clip-path:url(#SVGID_00000014612375850469961350000001811857499777453985_);}
	.st10{fill:none;stroke:#FF0339;stroke-miterlimit:10;}
	.st11{enable-background:new    ;}
</style>
<g transform="translate(-109.300 -187.700)">
<g xmlns="http://www.w3.org/2000/svg">
	<path class="st0" d="M138.4,203v8.5c0,2.9-2.4,5.3-5.3,5.3h-17c-2.9,0-5.3-2.4-5.3-5.3v-17.1c0-2.9,2.3-5.2,5.2-5.2h0.1h8.5" />
	<line class="st0" x1="126" y1="196.7" x2="126.6" y2="194.5" />
	<line class="st0" x1="120.4" y1="197.5" x2="119.2" y2="195.6" />
	<line class="st0" x1="117" y1="202.1" x2="114.8" y2="201.5" />
	<line class="st0" x1="117.8" y1="207.7" x2="115.8" y2="208.9" />
	<path class="st0" d="M136.2,215.4l-3.6-2.4c-1.2,0.9-2.6,1.4-4.1,1.4c-3.7-0.1-6.7-3.1-6.8-6.8c0-0.5,0.1-1,0.1-1.4l4.6,3.1l2.7-4   l-4.6-3.2c1.2-0.8,2.6-1.3,4-1.3c3.7-0.1,6.7,2.9,6.8,6.6c0,0.1,0,0.1,0,0.2c0,0.4,0,0.8-0.1,1.2l2.9,2" />
	<path class="st0" d="M133.8,189.2h4.2v3.6h-4.2v4h4.2" />
</g>

</g>
</svg>
