<?xml version="1.0" encoding="UTF-8"?>
<svg xmlns="http://www.w3.org/2000/svg" xmlns:xlink="http://www.w3.org/1999/xlink" viewBox="0 0 30.600 30.600" width="30.600" height="30.600">
<style type="text/css">
	.st0{fill:none;stroke:#64748B;stroke-width:2.13;stroke-linecap:round;stroke-linejoin:round;}
	.st1{fill:#64748B;stroke:#64748B;stroke-width:2.13;stroke-linecap:round;stroke-linejoin:round;}
	.st2{stroke:#64748B;stroke-width:2.13;stroke-linecap:round;stroke-linejoin:round;}
	.st3{fill:none;stroke:#64748B;stroke-width:2.13;stroke-linecap:round;stroke-linejoin:round;stroke-miterlimit:4;}
	.st4{fill:none;stroke:#64748B;stroke-width:1.98;stroke-linecap:round;stroke-linejoin:round;}
	.st5{fill:#64748B;stroke:#64748B;stroke-width:1.98;stroke-linecap:round;stroke-linejoin:round;}
	.st6{stroke:#64748B;stroke-width:1.98;stroke-linecap:round;stroke-linejoin:round;}
	.st7{stroke:#64748B;stroke-width:2.1301;stroke-linecap:round;stroke-linejoin:round;stroke-miterlimit:4.0001;}
	.st8{fill:none;stroke:#000000;stroke-width:2.13;stroke-linecap:round;stroke-linejoin:round;}
	.st9{clip-path:url(#SVGID_00000014612375850469961350000001811857499777453985_);}
	.st10{fill:none;stroke:#FF0339;stroke-miterlimit:10;}
	.st11{enable-background:new    ;}
</style>
<g transform="translate(-151.100 -187.700)">
<g xmlns="http://www.w3.org/2000/svg">
	<path class="st0" d="M180.2,203v8.5c0,2.9-2.4,5.3-5.3,5.3h-17c-2.9,0-5.3-2.4-5.3-5.3v-17.1c0-2.9,2.3-5.2,5.2-5.2h0.1h8.5" />
	<line class="st0" x1="167.8" y1="196.7" x2="168.4" y2="194.5" />
	<line class="st0" x1="162.2" y1="197.5" x2="161" y2="195.6" />
	<line class="st0" x1="158.7" y1="202.1" x2="156.5" y2="201.5" />
	<line class="st0" x1="159.5" y1="207.7" x2="157.6" y2="208.9" />
	<path class="st0" d="M178.2,215.6l-3.8-2.6c-1.2,0.9-2.6,1.4-4.1,1.4c-3.8,0-6.8-3-6.8-6.8c0-0.5,0-0.9,0.1-1.4l4.5,3.1l2.8-4   l-4.6-3.2c1.2-0.8,2.6-1.3,4-1.3c3.8,0,6.8,3,6.8,6.8c0,0.4-0.1,0.8-0.1,1.2l2.9,2" />
	<path class="st0" d="M175.5,196.8h4.3" />
	<path class="st0" d="M179.8,192.8v4" />
	<path class="st0" d="M175.5,189.2h4.3v3.6h-4.3" />
</g>

</g>
</svg>
