<?xml version="1.0" encoding="utf-8"?>
<svg xmlns="http://www.w3.org/2000/svg" viewBox="284 278 36 34" width="30.6" height="30.6">
  <path fill="none" stroke="#64748B" stroke-width="2.13" stroke-linecap="round" stroke-linejoin="round" d="M293.7,281.5h17c2.9,0,5.3,2.4,5.3,5.3v17c0,2.9-2.4,5.3-5.3,5.3h-17c-2.9,0-5.3-2.4-5.3-5.3v-17 C288.4,283.9,290.8,281.5,293.7,281.5z"/>
  <rect x="299.8" y="285.7" fill="none" stroke="#64748B" stroke-width="2.13" stroke-linecap="round" stroke-linejoin="round" width="4.9" height="3.6"/>
  <rect x="297.1" y="289.3" fill="none" stroke="#64748B" stroke-width="2.13" stroke-linecap="round" stroke-linejoin="round" width="10.3" height="15.5"/>
  <path fill="none" stroke="#64748B" stroke-width="2.13" stroke-linecap="round" stroke-linejoin="round" d="M300.4,294.9c0-0.2,0-0.5,0.1-0.7c0.1-0.3,0.4-0.6,0.7-0.8c0.9-0.5,2-0.3,2.6,0.5c0.5,0.8,0.3,1.9-0.3,2.6 c-0.5,0.6-1.2,0.6-1.5,1.4s0,0.5,0,0.7"/>
  <line x1="302.2" y1="301.3" x2="302.2" y2="301.2" fill="none" stroke="#64748B" stroke-width="2.13" stroke-linecap="round" stroke-linejoin="round"/>
</svg>
