<?xml version="1.0" encoding="UTF-8"?>
<svg xmlns="http://www.w3.org/2000/svg" xmlns:xlink="http://www.w3.org/1999/xlink" viewBox="0 0 30.600 30.600" width="30.600" height="30.600">
<style type="text/css">
	.st0{fill:none;stroke:#64748B;stroke-width:2.13;stroke-linecap:round;stroke-linejoin:round;}
	.st1{fill:#64748B;stroke:#64748B;stroke-width:2.13;stroke-linecap:round;stroke-linejoin:round;}
	.st2{stroke:#64748B;stroke-width:2.13;stroke-linecap:round;stroke-linejoin:round;}
	.st3{fill:none;stroke:#64748B;stroke-width:2.13;stroke-linecap:round;stroke-linejoin:round;stroke-miterlimit:4;}
	.st4{fill:none;stroke:#64748B;stroke-width:1.98;stroke-linecap:round;stroke-linejoin:round;}
	.st5{fill:#64748B;stroke:#64748B;stroke-width:1.98;stroke-linecap:round;stroke-linejoin:round;}
	.st6{stroke:#64748B;stroke-width:1.98;stroke-linecap:round;stroke-linejoin:round;}
	.st7{stroke:#64748B;stroke-width:2.1301;stroke-linecap:round;stroke-linejoin:round;stroke-miterlimit:4.0001;}
	.st8{fill:none;stroke:#000000;stroke-width:2.13;stroke-linecap:round;stroke-linejoin:round;}
	.st9{clip-path:url(#SVGID_00000014612375850469961350000001811857499777453985_);}
	.st10{fill:none;stroke:#FF0339;stroke-miterlimit:10;}
	.st11{enable-background:new    ;}
</style>
<g transform="translate(-26.700 -280.000)">
<g xmlns="http://www.w3.org/2000/svg">
	<path class="st0" d="M33.5,281.5h17c2.9,0,5.3,2.4,5.3,5.3v17c0,2.9-2.4,5.3-5.3,5.3h-17c-2.9,0-5.3-2.4-5.3-5.3v-17   C28.2,283.9,30.6,281.5,33.5,281.5z" />
	<path class="st0" d="M33.6,294.9c0-1.7,0.5-3.4,1.4-4.8v1.3h0.2v-1.6h-0.1l-1.5,0.7c0,0-0.1,0.1,0,0.1s0,0.1,0.1,0.1l1.1-0.6   c-0.9,1.5-1.4,3.2-1.4,4.9c0,1.9,0.6,3.7,1.7,5.2h0.1c0.1,0,0.1,0,0.1-0.1l0,0C34.2,298.6,33.6,296.8,33.6,294.9z" />
	<path class="st0" d="M50.3,298.5c-1.4,3.1-4.6,5.1-8,5.1h-0.4l1.1-0.7c0.1,0,0.1,0,0.1-0.1l0,0H43l-1.5,0.8l0,0l1.3,1H43v-0.2   l-1.1-0.7h0.4c3.5,0,6.8-2.1,8.2-5.3h-0.2C50.3,298.4,50.3,298.5,50.3,298.5z" />
	<path class="st0" d="M42.3,286.1c3.3,0,6.3,1.9,7.8,4.8l-1.1-0.6h-0.1l1.4,0.8h0.1c0.1,0,0.1,0,0.1-0.1l0,0v-1.6h-0.2v1.3   c-1.5-3-4.6-4.9-8-4.9h-0.8c-0.1,0-0.1,0-0.1,0.1s0,0.1,0.1,0.1l0,0L42.3,286.1z" />
</g>

</g>
</svg>
