<?xml version="1.0" encoding="utf-8"?>
<svg xmlns="http://www.w3.org/2000/svg" viewBox="194 273 39 39" width="36" height="36">
  <path fill="none" stroke="#64748B" stroke-width="2.13" stroke-linecap="round" stroke-linejoin="round" d="M206.7,281.5h17c2.9,0,5.3,2.4,5.3,5.3v17c0,2.9-2.4,5.3-5.3,5.3h-17c-2.9,0-5.3-2.4-5.3-5.3v-17 C201.4,283.9,203.8,281.5,206.7,281.5z"/>
  <path fill="none" stroke="#64748B" stroke-width="2.13" stroke-linecap="round" stroke-linejoin="round" d="M207.4,292.8c2.3-1.7,5.1-2.6,7.9-2.6c2.8,0,5.6,0.9,7.9,2.6"/>
  <path fill="none" stroke="#64748B" stroke-width="2.13" stroke-linecap="round" stroke-linejoin="round" d="M210.3,296.7c1.4-1.1,3.2-1.7,5-1.7s3.5,0.6,4.9,1.7"/>
  <path fill="none" stroke="#64748B" stroke-width="2.13" stroke-linecap="round" stroke-linejoin="round" d="M213.2,300.5c0.6-0.5,1.3-0.8,2.1-0.8s1.5,0.3,2.1,0.8"/>
</svg>
