<?xml version="1.0" encoding="utf-8"?>
<svg xmlns="http://www.w3.org/2000/svg" viewBox="523 135.5 39 39" width="36" height="36">
  <path fill="none" stroke="#64748B" stroke-width="2.13" stroke-linecap="round" stroke-linejoin="round" d="M556.1,159.9v8.5c0,2.9-2.4,5.3-5.3,5.3h-17c-2.9,0-5.3-2.4-5.3-5.3v-17c0-2.9,2.4-5.3,5.3-5.3h8.5"/>
  <rect x="540.3" y="157.9" fill="none" stroke="#64748B" stroke-width="2.13" stroke-linecap="round" stroke-linejoin="round" width="3.9" height="3.9"/>
  <line x1="548.2" y1="159.9" x2="550" y2="159.9" fill="none" stroke="#64748B" stroke-width="2.13" stroke-linecap="round" stroke-linejoin="round"/>
  <line x1="542.3" y1="153.9" x2="542.3" y2="152.1" fill="none" stroke="#64748B" stroke-width="2.13" stroke-linecap="round" stroke-linejoin="round"/>
  <line x1="538" y1="155.6" x2="536.8" y2="154.4" fill="none" stroke="#64748B" stroke-width="2.13" stroke-linecap="round" stroke-linejoin="round"/>
  <line x1="536.3" y1="159.9" x2="534.5" y2="159.9" fill="none" stroke="#64748B" stroke-width="2.13" stroke-linecap="round" stroke-linejoin="round"/>
  <line x1="538" y1="164.1" x2="536.8" y2="165.4" fill="none" stroke="#64748B" stroke-width="2.13" stroke-linecap="round" stroke-linejoin="round"/>
  <line x1="542.3" y1="165.8" x2="542.3" y2="167.6" fill="none" stroke="#64748B" stroke-width="2.13" stroke-linecap="round" stroke-linejoin="round"/>
  <line x1="546.5" y1="164.1" x2="547.8" y2="165.4" fill="none" stroke="#64748B" stroke-width="2.13" stroke-linecap="round" stroke-linejoin="round"/>
  <line x1="548.2" y1="159.9" x2="550" y2="159.9" fill="none" stroke="#64748B" stroke-width="2.13" stroke-linecap="round" stroke-linejoin="round"/>
  <line x1="560.5" y1="155" x2="556.5" y2="155" fill="none" stroke="#64748B" stroke-width="2.13" stroke-linecap="round" stroke-linejoin="round"/>
  <path fill="none" stroke="#64748B" stroke-width="2.13" stroke-linecap="round" stroke-linejoin="round" d="M547.4,144.6c-1.4,2.5-1.1,5.6,0.7,7.8c0.5,0.6,1.3,0.9,2.1,1l0.6-0.2c0.8-0.3,0.7-1.2,1.1-1.8c0.4-0.6,2.8,0.2,4.9-0.8c1.1-0.6,1.9-1.7,2.2-2.9c0.3-1.5-0.2-3.1-1.2-4.3c-1.8-2.1-5-2.1-7.1-1.3C549.3,142.6,548.2,143.4,547.4,144.6z"/>
</svg>
