<?xml version="1.0" encoding="UTF-8"?>
<svg xmlns="http://www.w3.org/2000/svg" xmlns:xlink="http://www.w3.org/1999/xlink" viewBox="0 0 35.000 35.094" width="35.000" height="35.094">
<style type="text/css">
	.st0{fill:none;stroke:#64748B;stroke-width:2.13;stroke-linecap:round;stroke-linejoin:round;}
	.st1{fill:#64748B;stroke:#64748B;stroke-width:2.13;stroke-linecap:round;stroke-linejoin:round;}
	.st2{stroke:#64748B;stroke-width:2.13;stroke-linecap:round;stroke-linejoin:round;}
	.st3{fill:none;stroke:#64748B;stroke-width:2.13;stroke-linecap:round;stroke-linejoin:round;stroke-miterlimit:4;}
	.st4{fill:none;stroke:#64748B;stroke-width:1.98;stroke-linecap:round;stroke-linejoin:round;}
	.st5{fill:#64748B;stroke:#64748B;stroke-width:1.98;stroke-linecap:round;stroke-linejoin:round;}
	.st6{stroke:#64748B;stroke-width:1.98;stroke-linecap:round;stroke-linejoin:round;}
	.st7{stroke:#64748B;stroke-width:2.1301;stroke-linecap:round;stroke-linejoin:round;stroke-miterlimit:4.0001;}
	.st8{fill:none;stroke:#000000;stroke-width:2.13;stroke-linecap:round;stroke-linejoin:round;}
	.st9{clip-path:url(#SVGID_00000014612375850469961350000001811857499777453985_);}
	.st10{fill:none;stroke:#FF0339;stroke-miterlimit:10;}
	.st11{enable-background:new    ;}
</style>
<g transform="translate(-401.700 -184.006)">
<g xmlns="http://www.w3.org/2000/svg">
	<path class="st0" d="M430.8,203.8v8.5c0,2.9-2.4,5.3-5.3,5.3h-17c-2.9,0-5.3-2.4-5.3-5.3v-17c0-2.9,2.4-5.3,5.3-5.3h8.5" />
	<line class="st0" x1="435.2" y1="198.9" x2="431.2" y2="198.9" />
	<path class="st0" d="M422.1,188.6c-1.4,2.5-1.1,5.5,0.7,7.7c0.5,0.6,1.3,0.9,2.1,1c0.2,0,0.4,0,0.6-0.2c0.7-0.3,0.7-1.2,1.1-1.8   s2.8,0.2,4.8-0.8c1.1-0.6,1.9-1.7,2.3-2.9c0.3-1.5-0.2-3.1-1.2-4.3c-1.9-2.1-5-2.1-7.1-1.3C424,186.5,422.8,187.4,422.1,188.6z" />
	
		<rect x="425.9" y="189.7" transform="matrix(0.9511 -0.309 0.309 0.9511 -37.8095 140.9181)" class="st7" width="0.2" height="0.2" />
	
		<rect x="429.4" y="188.7" transform="matrix(0.9511 -0.309 0.309 0.9511 -37.3268 141.9536)" class="st7" width="0.2" height="0.2" />
	
		<rect x="424.2" y="192.8" transform="matrix(0.9511 -0.309 0.309 0.9511 -38.846 140.5474)" class="st7" width="0.2" height="0.2" />
	<path class="st0" d="M416.5,203.8" />
	<line class="st0" x1="422.8" y1="203.2" x2="424.5" y2="201.4" />
	<line class="st0" x1="417" y1="200.8" x2="417" y2="198.3" />
	<line class="st0" x1="411.1" y1="203.2" x2="409.4" y2="201.4" />
	<rect x="409.6" y="207" class="st0" width="14.7" height="4.1" />
</g>

</g>
</svg>
