<?xml version="1.0" encoding="UTF-8"?>
<svg xmlns="http://www.w3.org/2000/svg" xmlns:xlink="http://www.w3.org/1999/xlink" viewBox="0 0 31.303 30.600" width="31.303" height="30.600">
<style type="text/css">
	.st0{fill:none;stroke:#64748B;stroke-width:2.13;stroke-linecap:round;stroke-linejoin:round;}
	.st1{fill:#64748B;stroke:#64748B;stroke-width:2.13;stroke-linecap:round;stroke-linejoin:round;}
	.st2{stroke:#64748B;stroke-width:2.13;stroke-linecap:round;stroke-linejoin:round;}
	.st3{fill:none;stroke:#64748B;stroke-width:2.13;stroke-linecap:round;stroke-linejoin:round;stroke-miterlimit:4;}
	.st4{fill:none;stroke:#64748B;stroke-width:1.98;stroke-linecap:round;stroke-linejoin:round;}
	.st5{fill:#64748B;stroke:#64748B;stroke-width:1.98;stroke-linecap:round;stroke-linejoin:round;}
	.st6{stroke:#64748B;stroke-width:1.98;stroke-linecap:round;stroke-linejoin:round;}
	.st7{stroke:#64748B;stroke-width:2.1301;stroke-linecap:round;stroke-linejoin:round;stroke-miterlimit:4.0001;}
	.st8{fill:none;stroke:#000000;stroke-width:2.13;stroke-linecap:round;stroke-linejoin:round;}
	.st9{clip-path:url(#SVGID_00000014612375850469961350000001811857499777453985_);}
	.st10{fill:none;stroke:#FF0339;stroke-miterlimit:10;}
	.st11{enable-background:new    ;}
</style>
<g transform="translate(-661.997 -144.600)">
<g xmlns="http://www.w3.org/2000/svg">
	<path class="st0" d="M691.1,159.9v8.5c0,2.9-2.4,5.3-5.3,5.3h-17.1c-2.9,0-5.2-2.3-5.2-5.2v-0.1v-17c-0.1-2.9,2.2-5.2,5.1-5.3h0.1   h8.6" />
	<path class="st0" d="M677.3,159.9" />
	<rect x="675.3" y="157.9" class="st0" width="3.9" height="3.9" />
	<line class="st0" x1="683.2" y1="159.9" x2="685" y2="159.9" />
	<line class="st0" x1="681.4" y1="155.6" x2="682.7" y2="154.4" />
	<line class="st0" x1="677.2" y1="153.9" x2="677.2" y2="152.1" />
	<line class="st0" x1="673" y1="155.6" x2="671.7" y2="154.4" />
	<line class="st0" x1="671.3" y1="159.9" x2="669.4" y2="159.9" />
	<line class="st0" x1="673" y1="164.1" x2="671.7" y2="165.4" />
	<line class="st0" x1="677.2" y1="165.8" x2="677.2" y2="167.6" />
	<line class="st0" x1="681.4" y1="164.1" x2="682.7" y2="165.4" />
	<line class="st0" x1="683.2" y1="159.9" x2="685" y2="159.9" />
	<line class="st0" x1="691.8" y1="149.7" x2="685.8" y2="149.7" />
	<line class="st0" x1="688.8" y1="146.6" x2="688.8" y2="152.7" />
</g>

</g>
</svg>
