<?xml version="1.0" encoding="utf-8"?>
<svg xmlns="http://www.w3.org/2000/svg" viewBox="150 230 39 39" width="36" height="36">
  <path fill="none" stroke="#64748B" stroke-width="2.13" stroke-linecap="round" stroke-linejoin="round" d="M166.8,254.2"/>
  <line x1="173.1" y1="253.5" x2="174.8" y2="251.8" fill="none" stroke="#64748B" stroke-width="2.13" stroke-linecap="round" stroke-linejoin="round"/>
  <line x1="167.3" y1="251.1" x2="167.3" y2="248.6" fill="none" stroke="#64748B" stroke-width="2.13" stroke-linecap="round" stroke-linejoin="round"/>
  <line x1="161.4" y1="253.5" x2="159.7" y2="251.8" fill="none" stroke="#64748B" stroke-width="2.13" stroke-linecap="round" stroke-linejoin="round"/>
  <rect x="158.6" y="257.6" fill="none" stroke="#64748B" stroke-width="2.13" stroke-linecap="round" stroke-linejoin="round" width="3.5" height="3.5"/>
  <rect x="165.5" y="257.6" fill="none" stroke="#64748B" stroke-width="2.13" stroke-linecap="round" stroke-linejoin="round" width="3.5" height="3.5"/>
  <rect x="172.3" y="257.6" fill="none" stroke="#64748B" stroke-width="2.13" stroke-linecap="round" stroke-linejoin="round" width="3.5" height="3.5"/>
  <path fill="none" stroke="#64748B" stroke-width="2.13" stroke-linecap="round" stroke-linejoin="round" d="M181.1,254.2v8.5c0,2.9-2.4,5.3-5.3,5.3h-17c-2.9,0-5.3-2.4-5.3-5.3v-17c0-2.9,2.4-5.3,5.3-5.3h8.5"/>
  <line x1="185.5" y1="249.3" x2="181.5" y2="249.3" fill="none" stroke="#64748B" stroke-width="2.13" stroke-linecap="round" stroke-linejoin="round"/>
  <path fill="none" stroke="#64748B" stroke-width="2.13" stroke-linecap="round" stroke-linejoin="round" d="M172.4,238.9c-1.4,2.5-1.1,5.6,0.7,7.8c0.6,0.6,1.3,0.9,2.1,1l0.6-0.2c0.8-0.4,0.7-1.2,1.1-1.8s2.8,0.2,4.9-0.8c1.1-0.6,1.9-1.7,2.2-2.9c0.3-1.5-0.2-3.1-1.2-4.3c-1.8-2.1-5-2.1-7.1-1.3C174.3,236.9,173.2,237.7,172.4,238.9z"/>
  <rect x="176.4" y="240.2" transform="matrix(0.9511 -0.309 0.309 0.9511 -65.6165 66.2909)" fill="none" stroke="#64748B" stroke-width="2.1301" stroke-linecap="round" stroke-linejoin="round" width="0.2" height="0.2"/>
  <rect x="179.6" y="239.3" transform="matrix(0.9511 -0.309 0.309 0.9511 -65.1834 67.235)" fill="none" stroke="#64748B" stroke-width="2.1301" stroke-linecap="round" stroke-linejoin="round" width="0.2" height="0.2"/>
  <rect x="174.6" y="243.4" transform="matrix(0.9511 -0.309 0.309 0.9511 -66.698 65.8972)" fill="none" stroke="#64748B" stroke-width="2.1301" stroke-linecap="round" stroke-linejoin="round" width="0.2" height="0.2"/>
</svg>
