<?xml version="1.0" encoding="utf-8"?>
<svg xmlns="http://www.w3.org/2000/svg" viewBox="374 230 39 39" width="36" height="36">
  <path fill="none" stroke="#64748B" stroke-width="2.13" stroke-linecap="round" stroke-linejoin="round" d="M389.1,254.2"/>
  <line x1="395.4" y1="253.5" x2="397.1" y2="251.8" fill="none" stroke="#64748B" stroke-width="2.13" stroke-linecap="round" stroke-linejoin="round"/>
  <line x1="389.5" y1="251.1" x2="389.5" y2="248.6" fill="none" stroke="#64748B" stroke-width="2.13" stroke-linecap="round" stroke-linejoin="round"/>
  <line x1="383.7" y1="253.5" x2="382" y2="251.8" fill="none" stroke="#64748B" stroke-width="2.13" stroke-linecap="round" stroke-linejoin="round"/>
  <rect x="380.9" y="257.6" fill="none" stroke="#64748B" stroke-width="2.13" stroke-linecap="round" stroke-linejoin="round" width="3.5" height="3.5"/>
  <rect x="387.8" y="257.6" fill="none" stroke="#64748B" stroke-width="2.13" stroke-linecap="round" stroke-linejoin="round" width="3.5" height="3.5"/>
  <rect x="394.6" y="257.6" fill="none" stroke="#64748B" stroke-width="2.13" stroke-linecap="round" stroke-linejoin="round" width="3.5" height="3.5"/>
  <path fill="none" stroke="#64748B" stroke-width="2.13" stroke-linecap="round" stroke-linejoin="round" d="M403.4,254.2v8.5c0,2.9-2.4,5.3-5.3,5.3h-17c-2.9,0-5.3-2.4-5.3-5.3v-17c-0.1-2.9,2.2-5.2,5.1-5.3c0.1,0,0.1,0,0.2,0h8.5"/>
  <line x1="406.3" y1="243.9" x2="400.3" y2="243.9" fill="none" stroke="#64748B" stroke-width="2.13" stroke-linecap="round" stroke-linejoin="round"/>
  <polyline fill="none" stroke="#64748B" stroke-width="2.13" stroke-linecap="round" stroke-linejoin="round" points="395.5,243.4 393,240.9 395.5,238.4"/>
</svg>
