<?xml version="1.0" encoding="utf-8"?>
<svg xmlns="http://www.w3.org/2000/svg" viewBox="72 235 32 34" width="30.6" height="30.6">
  <path fill="none" stroke="#64748B" stroke-width="2.13" stroke-linecap="round" stroke-linejoin="round" d="M83.3,254.2"/>
  <line x1="89.5" y1="253.5" x2="91.3" y2="251.8" fill="none" stroke="#64748B" stroke-width="2.13" stroke-linecap="round" stroke-linejoin="round"/>
  <line x1="83.7" y1="251.1" x2="83.7" y2="248.6" fill="none" stroke="#64748B" stroke-width="2.13" stroke-linecap="round" stroke-linejoin="round"/>
  <line x1="77.9" y1="253.5" x2="76.1" y2="251.8" fill="none" stroke="#64748B" stroke-width="2.13" stroke-linecap="round" stroke-linejoin="round"/>
  <rect x="75.1" y="257.6" fill="none" stroke="#64748B" stroke-width="2.13" stroke-linecap="round" stroke-linejoin="round" width="3.5" height="3.5"/>
  <rect x="82" y="257.6" fill="none" stroke="#64748B" stroke-width="2.13" stroke-linecap="round" stroke-linejoin="round" width="3.5" height="3.5"/>
  <rect x="88.8" y="257.6" fill="none" stroke="#64748B" stroke-width="2.13" stroke-linecap="round" stroke-linejoin="round" width="3.5" height="3.5"/>
  <path fill="none" stroke="#64748B" stroke-width="2.13" stroke-linecap="round" stroke-linejoin="round" d="M97.6,254.2v8.5c0,2.9-2.4,5.3-5.3,5.3H75.2c-2.9,0-5.2-2.3-5.2-5.2v-0.1v-17c-0.1-2.9,2.2-5.2,5.1-5.3h0.1h8.6"/>
  <polyline fill="none" stroke="#64748B" stroke-width="2.13" stroke-linecap="round" stroke-linejoin="round" points="96.7,240.8 90.7,240.8 93.1,238.4"/>
</svg>
