<?xml version="1.0" encoding="utf-8"?>
<svg xmlns="http://www.w3.org/2000/svg" viewBox="196 235 38 34" width="30.6" height="30.6">
  <path fill="none" stroke="#64748B" stroke-width="2.13" stroke-linecap="round" stroke-linejoin="round" d="M213.1,254.2"/>
  <line x1="219.3" y1="253.5" x2="221.1" y2="251.8" fill="none" stroke="#64748B" stroke-width="2.13" stroke-linecap="round" stroke-linejoin="round"/>
  <line x1="213.5" y1="251.1" x2="213.5" y2="248.6" fill="none" stroke="#64748B" stroke-width="2.13" stroke-linecap="round" stroke-linejoin="round"/>
  <line x1="207.7" y1="253.5" x2="205.9" y2="251.8" fill="none" stroke="#64748B" stroke-width="2.13" stroke-linecap="round" stroke-linejoin="round"/>
  <rect x="204.9" y="257.6" fill="none" stroke="#64748B" stroke-width="2.13" stroke-linecap="round" stroke-linejoin="round" width="3.5" height="3.5"/>
  <rect x="211.7" y="257.6" fill="none" stroke="#64748B" stroke-width="2.13" stroke-linecap="round" stroke-linejoin="round" width="3.5" height="3.5"/>
  <rect x="218.5" y="257.6" fill="none" stroke="#64748B" stroke-width="2.13" stroke-linecap="round" stroke-linejoin="round" width="3.5" height="3.5"/>
  <path fill="none" stroke="#64748B" stroke-width="2.13" stroke-linecap="round" stroke-linejoin="round" d="M227.3,254.2v8.5c0,2.9-2.4,5.3-5.3,5.3h-17c-2.9,0-5.3-2.4-5.3-5.3v-17c0-2.9,2.4-5.3,5.3-5.3h8.5"/>
  <line x1="231.7" y1="249.3" x2="227.8" y2="249.3" fill="none" stroke="#64748B" stroke-width="2.13" stroke-linecap="round" stroke-linejoin="round"/>
  <line x1="229.7" y1="247.3" x2="229.7" y2="251.3" fill="none" stroke="#64748B" stroke-width="2.13" stroke-linecap="round" stroke-linejoin="round"/>
  <path fill="none" stroke="#64748B" stroke-width="2.13" stroke-linecap="round" stroke-linejoin="round" d="M218.6,238.9c-1.4,2.5-1.1,5.6,0.8,7.8c0.5,0.5,1.2,0.9,2,1l0.6-0.2c0.8-0.4,0.7-1.2,1.1-1.8c0.4-0.6,2.8,0.2,4.9-0.8c1.1-0.6,1.9-1.7,2.2-2.9c0.3-1.5-0.2-3.1-1.2-4.3c-1.8-2.1-5-2.1-7.1-1.3C220.5,236.9,219.4,237.8,218.6,238.9z"/>
  <rect x="222.4" y="240.2" transform="matrix(0.9511 -0.309 0.309 0.9511 -63.372 80.5063)" fill="none" stroke="#64748B" stroke-width="2.1301" stroke-linecap="round" stroke-linejoin="round" width="0.2" height="0.2"/>
  <rect x="225.9" y="239.4" transform="matrix(0.9511 -0.309 0.309 0.9511 -62.9428 81.5543)" fill="none" stroke="#64748B" stroke-width="2.1301" stroke-linecap="round" stroke-linejoin="round" width="0.2" height="0.2"/>
  <rect x="220.9" y="243.4" transform="matrix(0.9511 -0.309 0.309 0.9511 -64.4282 80.205)" fill="none" stroke="#64748B" stroke-width="2.1301" stroke-linecap="round" stroke-linejoin="round" width="0.2" height="0.2"/>
</svg>
