<?xml version="1.0" encoding="UTF-8"?>
<svg xmlns="http://www.w3.org/2000/svg" xmlns:xlink="http://www.w3.org/1999/xlink" viewBox="0 0 30.600 30.600" width="30.600" height="30.600">
<style type="text/css">
	.st0{fill:none;stroke:#64748B;stroke-width:2.13;stroke-linecap:round;stroke-linejoin:round;}
	.st1{fill:#64748B;stroke:#64748B;stroke-width:2.13;stroke-linecap:round;stroke-linejoin:round;}
	.st2{stroke:#64748B;stroke-width:2.13;stroke-linecap:round;stroke-linejoin:round;}
	.st3{fill:none;stroke:#64748B;stroke-width:2.13;stroke-linecap:round;stroke-linejoin:round;stroke-miterlimit:4;}
	.st4{fill:none;stroke:#64748B;stroke-width:1.98;stroke-linecap:round;stroke-linejoin:round;}
	.st5{fill:#64748B;stroke:#64748B;stroke-width:1.98;stroke-linecap:round;stroke-linejoin:round;}
	.st6{stroke:#64748B;stroke-width:1.98;stroke-linecap:round;stroke-linejoin:round;}
	.st7{stroke:#64748B;stroke-width:2.1301;stroke-linecap:round;stroke-linejoin:round;stroke-miterlimit:4.0001;}
	.st8{fill:none;stroke:#000000;stroke-width:2.13;stroke-linecap:round;stroke-linejoin:round;}
	.st9{clip-path:url(#SVGID_00000014612375850469961350000001811857499777453985_);}
	.st10{fill:none;stroke:#FF0339;stroke-miterlimit:10;}
	.st11{enable-background:new    ;}
</style>
<g transform="translate(-317.400 -93.400)">
<g xmlns="http://www.w3.org/2000/svg">
	<path class="st0" d="M341.3,105.3v2.6c0,0.4-0.4,0.8-0.8,0.8h-2.6c-0.4,0-0.8-0.4-0.8-0.8v-2.6c0-0.4,0.4-0.8,0.8-0.8h2.6   C340.9,104.5,341.3,104.9,341.3,105.3z" />
	<path class="st0" d="M341.3,114v2.6c0,0.4-0.4,0.8-0.8,0.8h-2.6c-0.4,0-0.8-0.4-0.8-0.8V114c0-0.4,0.4-0.8,0.8-0.8h2.6   C340.9,113.2,341.3,113.6,341.3,114z" />
	<path class="st0" d="M333.2,114.3v1.8c0,0.7-0.5,1.2-1.2,1.2h-6.4c-0.7,0-1.2-0.5-1.2-1.2v-1.8c0-0.7,0.5-1.2,1.2-1.2h6.4   C332.6,113.1,333.2,113.7,333.2,114.3z" />
	<path class="st0" d="M325.8,99.9h5.7c0.9,0,1.7,0.8,1.7,1.7v5.7c0,0.9-0.8,1.7-1.7,1.7h-5.7c-0.9,0-1.7-0.8-1.7-1.7v-5.7   C324.1,100.7,324.8,99.9,325.8,99.9z" />
	<path class="st0" d="M324.2,94.9h17c2.9,0,5.3,2.4,5.3,5.3v17c0,2.9-2.4,5.3-5.3,5.3h-17c-2.9,0-5.3-2.4-5.3-5.3v-17   C318.9,97.3,321.3,94.9,324.2,94.9z" />
</g>

</g>
</svg>
