<?xml version="1.0" encoding="UTF-8"?>
<svg xmlns="http://www.w3.org/2000/svg" xmlns:xlink="http://www.w3.org/1999/xlink" viewBox="0 0 30.700 30.600" width="30.700" height="30.600">
<style type="text/css">
	.st0{fill:none;stroke:#64748B;stroke-width:2.13;stroke-linecap:round;stroke-linejoin:round;}
	.st1{fill:#64748B;stroke:#64748B;stroke-width:2.13;stroke-linecap:round;stroke-linejoin:round;}
	.st2{stroke:#64748B;stroke-width:2.13;stroke-linecap:round;stroke-linejoin:round;}
	.st3{fill:none;stroke:#64748B;stroke-width:2.13;stroke-linecap:round;stroke-linejoin:round;stroke-miterlimit:4;}
	.st4{fill:none;stroke:#64748B;stroke-width:1.98;stroke-linecap:round;stroke-linejoin:round;}
	.st5{fill:#64748B;stroke:#64748B;stroke-width:1.98;stroke-linecap:round;stroke-linejoin:round;}
	.st6{stroke:#64748B;stroke-width:1.98;stroke-linecap:round;stroke-linejoin:round;}
	.st7{stroke:#64748B;stroke-width:2.1301;stroke-linecap:round;stroke-linejoin:round;stroke-miterlimit:4.0001;}
	.st8{fill:none;stroke:#000000;stroke-width:2.13;stroke-linecap:round;stroke-linejoin:round;}
	.st9{clip-path:url(#SVGID_00000014612375850469961350000001811857499777453985_);}
	.st10{fill:none;stroke:#FF0339;stroke-miterlimit:10;}
	.st11{enable-background:new    ;}
</style>
<g transform="translate(-569.900 -93.400)">
<g xmlns="http://www.w3.org/2000/svg">
	<path class="st0" d="M576.7,94.9h17c2.9,0,5.3,2.4,5.3,5.3v17c0,2.9-2.4,5.3-5.3,5.3h-17c-2.9,0-5.3-2.4-5.3-5.3v-17   C571.4,97.3,573.8,94.9,576.7,94.9z" />
	<path class="st0" d="M576.8,94.9h18.6c2,0,3.7,1.7,3.7,3.7l0,0v3.9l0,0h-22.3l0,0V94.9L576.8,94.9z" />
	<polygon class="st1" points="586.9,110.1 590.8,110.6 588,113.3 588.7,117.1 585.2,115.3 581.8,117.1 582.5,113.3 579.7,110.7    583.5,110.1 585.2,106.6  " />
</g>

</g>
</svg>
