<?xml version="1.0" encoding="UTF-8"?>
<svg xmlns="http://www.w3.org/2000/svg" xmlns:xlink="http://www.w3.org/1999/xlink" viewBox="-6.4 -7.55 39 39" width="36" height="36">
<style type="text/css">
	.st0{fill:none;stroke:#64748B;stroke-width:2.13;stroke-linecap:round;stroke-linejoin:round;}
	.st1{fill:#64748B;stroke:#64748B;stroke-width:2.13;stroke-linecap:round;stroke-linejoin:round;}
	.st2{stroke:#64748B;stroke-width:2.13;stroke-linecap:round;stroke-linejoin:round;}
	.st3{fill:none;stroke:#64748B;stroke-width:2.13;stroke-linecap:round;stroke-linejoin:round;stroke-miterlimit:4;}
	.st4{fill:none;stroke:#64748B;stroke-width:1.98;stroke-linecap:round;stroke-linejoin:round;}
	.st5{fill:#64748B;stroke:#64748B;stroke-width:1.98;stroke-linecap:round;stroke-linejoin:round;}
	.st6{stroke:#64748B;stroke-width:1.98;stroke-linecap:round;stroke-linejoin:round;}
	.st7{stroke:#64748B;stroke-width:2.1301;stroke-linecap:round;stroke-linejoin:round;stroke-miterlimit:4.0001;}
	.st8{fill:none;stroke:#000000;stroke-width:2.13;stroke-linecap:round;stroke-linejoin:round;}
	.st9{clip-path:url(#SVGID_00000014612375850469961350000001811857499777453985_);}
	.st10{fill:none;stroke:#FF0339;stroke-miterlimit:10;}
	.st11{enable-background:new    ;}
</style>
<g transform="translate(-695.200 -94.200)">
<g xmlns="http://www.w3.org/2000/svg">
	<path class="st0" d="M702.8,99h16c0.8,0,1.4,0.6,1.4,1.4V111c0,0.8-0.6,1.4-1.4,1.4h-16c-0.8,0-1.4-0.6-1.4-1.4v-10.6   C701.4,99.6,702,99,702.8,99z" />
	<path class="st0" d="M698.8,95.7h24c1.2,0,2.1,0.9,2.1,2.1v15.9c0,1.2-0.9,2.1-2.1,2.1h-24c-1.2,0-2.1-0.9-2.1-2.1V97.8   C696.7,96.7,697.6,95.7,698.8,95.7z" />
	<path class="st0" d="M697.8,118.9h26c0.6,0,1.1,0.5,1.1,1.1v0.5c0,0.6-0.5,1.1-1.1,1.1h-26c-0.6,0-1.1-0.5-1.1-1.1V120   C696.7,119.4,697.2,118.9,697.8,118.9z" />
	<line class="st0" x1="705.8" y1="103.4" x2="709.5" y2="103.4" />
</g>

</g>
</svg>
