<?xml version="1.0" encoding="UTF-8"?>
<svg xmlns="http://www.w3.org/2000/svg" xmlns:xlink="http://www.w3.org/1999/xlink" viewBox="-6.7 -6.7 39 39" width="36" height="36">
<style type="text/css">
	.st0{fill:none;stroke:#64748B;stroke-width:2.13;stroke-linecap:round;stroke-linejoin:round;}
	.st1{fill:#64748B;stroke:#64748B;stroke-width:2.13;stroke-linecap:round;stroke-linejoin:round;}
	.st2{stroke:#64748B;stroke-width:2.13;stroke-linecap:round;stroke-linejoin:round;}
	.st3{fill:none;stroke:#64748B;stroke-width:2.13;stroke-linecap:round;stroke-linejoin:round;stroke-miterlimit:4;}
	.st4{fill:none;stroke:#64748B;stroke-width:1.98;stroke-linecap:round;stroke-linejoin:round;}
	.st5{fill:#64748B;stroke:#64748B;stroke-width:1.98;stroke-linecap:round;stroke-linejoin:round;}
	.st6{stroke:#64748B;stroke-width:1.98;stroke-linecap:round;stroke-linejoin:round;}
	.st7{stroke:#64748B;stroke-width:2.1301;stroke-linecap:round;stroke-linejoin:round;stroke-miterlimit:4.0001;}
	.st8{fill:none;stroke:#000000;stroke-width:2.13;stroke-linecap:round;stroke-linejoin:round;}
	.st9{clip-path:url(#SVGID_00000014612375850469961350000001811857499777453985_);}
	.st10{fill:none;stroke:#FF0339;stroke-miterlimit:10;}
	.st11{enable-background:new    ;}
</style>
<g transform="translate(-674.000 -45.600)">
<g xmlns="http://www.w3.org/2000/svg">
	<path class="st0" d="M680.8,47.1h17c2.9,0,5.3,2.4,5.3,5.3v17c0,2.9-2.4,5.3-5.3,5.3h-17c-2.9,0-5.3-2.4-5.3-5.3v-17   C675.5,49.5,677.9,47.1,680.8,47.1z" />
	<path class="st4" d="M698.8,57.5v2.6h-7.7v-1.6c0.8,0,1.4-0.6,1.5-1.4v-3.4c0-0.8-0.7-1.5-1.5-1.5l0,0v-2.3c2,0,4,0.8,5.4,2.2   S698.8,55.5,698.8,57.5z" />
	<path class="st4" d="M692.6,53.7v3.4c0,0.8-0.7,1.5-1.5,1.5s-1.5-0.7-1.5-1.5v-3.4c0-0.8,0.7-1.5,1.5-1.5S692.6,52.9,692.6,53.7   L692.6,53.7z" />
	<path class="st4" d="M685.3,60.1L685.3,60.1z" />
	<path class="st4" d="M689.6,53.7v3.4c0.1,0.8,0.7,1.4,1.5,1.4v1.6h-7.7v-2.6c0.1-4.2,3.5-7.6,7.7-7.6v2.3   C690.2,52.2,689.6,52.9,689.6,53.7L689.6,53.7z" />
	<path class="st4" d="M684.9,60.1L684.9,60.1z" />
	<path class="st4" d="M698.8,60.1v4.2c0,4.3-3.5,7.7-7.7,7.7s-7.7-3.4-7.7-7.7v-4.2C683.4,60.1,698.8,60.1,698.8,60.1z" />
	<path class="st4" d="M684.8,60.1h-0.9l-0.2,0.3v0.2l0.2-0.2l0,0l0.3-0.2L684.8,60.1L684.8,60.1L684.8,60.1z" />
	<path class="st4" d="M683.4,56.5v2.7c0,0.5-0.8,0.9-1.7,0.9s-1.7-0.4-1.7-0.9v-2.7c0-0.4,0.8-0.8,1.7-0.8S683.4,56.1,683.4,56.5z" />
	<path class="st5" d="M683.4,60.9v2.8c0,0.4-0.8,0.8-1.7,0.8h-0.6c-0.5,0-0.9-0.3-1.1-0.8l0,0v-2.8l0,0l0.3-0.3h1.9   C682.9,60.2,683.4,60.6,683.4,60.9z" />
	<path class="st6" d="M685.8,60.1L685.8,60.1z" />
	<line class="st4" x1="684.7" y1="60.1" x2="684.2" y2="60.1" />
</g>

</g>
</svg>
