<?xml version="1.0" encoding="UTF-8"?>
<svg xmlns="http://www.w3.org/2000/svg" xmlns:xlink="http://www.w3.org/1999/xlink" viewBox="0 0 30.600 30.600" width="30.600" height="30.600">
<style type="text/css">
	.st0{fill:none;stroke:#64748B;stroke-width:2.13;stroke-linecap:round;stroke-linejoin:round;}
	.st1{fill:#64748B;stroke:#64748B;stroke-width:2.13;stroke-linecap:round;stroke-linejoin:round;}
	.st2{stroke:#64748B;stroke-width:2.13;stroke-linecap:round;stroke-linejoin:round;}
	.st3{fill:none;stroke:#64748B;stroke-width:2.13;stroke-linecap:round;stroke-linejoin:round;stroke-miterlimit:4;}
	.st4{fill:none;stroke:#64748B;stroke-width:1.98;stroke-linecap:round;stroke-linejoin:round;}
	.st5{fill:#64748B;stroke:#64748B;stroke-width:1.98;stroke-linecap:round;stroke-linejoin:round;}
	.st6{stroke:#64748B;stroke-width:1.98;stroke-linecap:round;stroke-linejoin:round;}
	.st7{stroke:#64748B;stroke-width:2.1301;stroke-linecap:round;stroke-linejoin:round;stroke-miterlimit:4.0001;}
	.st8{fill:none;stroke:#000000;stroke-width:2.13;stroke-linecap:round;stroke-linejoin:round;}
	.st9{clip-path:url(#SVGID_00000014612375850469961350000001811857499777453985_);}
	.st10{fill:none;stroke:#FF0339;stroke-miterlimit:10;}
	.st11{enable-background:new    ;}
</style>
<g transform="translate(-590.500 -45.600)">
<g xmlns="http://www.w3.org/2000/svg">
	<path class="st0" d="M597.3,47.1h17c2.9,0,5.3,2.4,5.3,5.3v17c0,2.9-2.4,5.3-5.3,5.3h-17c-2.9,0-5.3-2.4-5.3-5.3v-17   C592,49.5,594.4,47.1,597.3,47.1z" />
	<path class="st5" d="M615.2,57.5v2.6h-7.6v-1.6c0.8,0,1.4-0.6,1.4-1.4v-3.4c0.1-0.8-0.5-1.4-1.3-1.5h-0.1v-2.3   c4.1-0.1,7.5,3.3,7.6,7.4C615.2,57.4,615.2,57.5,615.2,57.5L615.2,57.5z" />
	<path class="st4" d="M609,53.7v3.4c0,0.8-0.6,1.4-1.4,1.4c-0.8,0-1.4-0.6-1.5-1.4v-3.4c0-0.8,0.7-1.5,1.5-1.5l0,0   C608.4,52.2,609,52.8,609,53.7C609,53.7,609,53.7,609,53.7z" />
	<path class="st4" d="M601.8,60.1L601.8,60.1z" />
	<path class="st4" d="M606.1,53.7v3.4c0.1,0.8,0.7,1.4,1.5,1.4v1.6h-7.7v-2.6c0.1-4.2,3.5-7.6,7.7-7.6v2.3   C606.7,52.2,606.1,52.9,606.1,53.7L606.1,53.7z" />
	<path class="st4" d="M601.3,60.1L601.3,60.1z" />
	<path class="st4" d="M615.2,60.1v4.2c0.1,4.2-3.3,7.6-7.5,7.7h-0.1c-4.3,0-7.7-3.4-7.7-7.7l0,0v-4.2L615.2,60.1L615.2,60.1z" />
	<path class="st4" d="M601.2,60.1h-0.8c-0.2,0.1-0.2,0.2-0.3,0.3V60h0.1l0.3-0.2h0.5L601.2,60.1z" />
	<path class="st4" d="M599.9,56.5v2.7c0,0.5-0.8,0.9-1.7,0.9s-1.7-0.4-1.7-0.9v-2.7c0-0.4,0.7-0.8,1.7-0.8S599.9,56.1,599.9,56.5z" />
	<path class="st4" d="M599.9,60.9v2.8c0,0.4-0.8,0.8-1.7,0.8h-0.6c-0.6-0.1-1.1-0.4-1.1-0.8l0,0v-2.8l0,0l0.2-0.3h1.9   C599.4,60.2,599.9,60.6,599.9,60.9z" />
	<path class="st6" d="M602.3,60.1L602.3,60.1z" />
	<line class="st4" x1="601.1" y1="60.1" x2="600.7" y2="60.1" />
</g>

</g>
</svg>
