<?xml version="1.0" encoding="UTF-8"?>
<svg xmlns="http://www.w3.org/2000/svg" xmlns:xlink="http://www.w3.org/1999/xlink" viewBox="0 0 30.600 30.603" width="30.600" height="30.603">
<style type="text/css">
	.st0{fill:none;stroke:#64748B;stroke-width:2.13;stroke-linecap:round;stroke-linejoin:round;}
	.st1{fill:#64748B;stroke:#64748B;stroke-width:2.13;stroke-linecap:round;stroke-linejoin:round;}
	.st2{stroke:#64748B;stroke-width:2.13;stroke-linecap:round;stroke-linejoin:round;}
	.st3{fill:none;stroke:#64748B;stroke-width:2.13;stroke-linecap:round;stroke-linejoin:round;stroke-miterlimit:4;}
	.st4{fill:none;stroke:#64748B;stroke-width:1.98;stroke-linecap:round;stroke-linejoin:round;}
	.st5{fill:#64748B;stroke:#64748B;stroke-width:1.98;stroke-linecap:round;stroke-linejoin:round;}
	.st6{stroke:#64748B;stroke-width:1.98;stroke-linecap:round;stroke-linejoin:round;}
	.st7{stroke:#64748B;stroke-width:2.1301;stroke-linecap:round;stroke-linejoin:round;stroke-miterlimit:4.0001;}
	.st8{fill:none;stroke:#000000;stroke-width:2.13;stroke-linecap:round;stroke-linejoin:round;}
	.st9{clip-path:url(#SVGID_00000014612375850469961350000001811857499777453985_);}
	.st10{fill:none;stroke:#FF0339;stroke-miterlimit:10;}
	.st11{enable-background:new    ;}
</style>
<g transform="translate(-757.600 -45.600)">
<g xmlns="http://www.w3.org/2000/svg">
	<path class="st0" d="M786.7,60.9v8.6c0,2.9-2.3,5.2-5.2,5.2h-0.1h-17c-2.9,0.1-5.2-2.2-5.3-5.1v-0.1V52.4c0-2.9,2.4-5.3,5.3-5.3   h8.5" />
	<path class="st6" d="M786,49.3h-3.8l1.9-1.9L786,49.3z" />
	<path class="st4" d="M782.3,57.5v2.6h-7.7v-1.6c0.8,0,1.4-0.6,1.5-1.4v-3.4c0-0.8-0.7-1.5-1.5-1.5l0,0v-2.3c2-0.1,4,0.7,5.4,2.2   C781.4,53.5,782.3,55.5,782.3,57.5z" />
	<path class="st5" d="M776.1,53.7v3.4c-0.1,0.8-0.7,1.4-1.5,1.4s-1.4-0.6-1.4-1.4v-3.4c-0.1-0.8,0.5-1.4,1.3-1.5h0.1   C775.4,52.2,776.1,52.9,776.1,53.7L776.1,53.7z" />
	<path class="st4" d="M768.9,60.1L768.9,60.1z" />
	<path class="st4" d="M773.2,53.7v3.4c0,0.8,0.6,1.4,1.4,1.4v1.6H767v-2.6c0-4.2,3.4-7.6,7.6-7.6l0,0v2.3   C773.8,52.2,773.2,52.8,773.2,53.7C773.2,53.7,773.2,53.7,773.2,53.7z" />
	<path class="st4" d="M768.4,60.1L768.4,60.1z" />
	<path class="st4" d="M782.3,60.1v4.2c0.5,4.2-2.5,8-6.8,8.5c-4.2,0.5-8-2.5-8.5-6.8c-0.1-0.6-0.1-1.2,0-1.8V60h15.3V60.1z" />
	<path class="st4" d="M768.3,60.1h-0.9l-0.2,0.3c0-0.1,0-0.2,0.1-0.2s0-0.2,0.1-0.2c0-0.1,0-0.1,0.1-0.1l0,0l0.3-0.2h0.5L768.3,60.1   L768.3,60.1z" />
	<path class="st4" d="M766.9,56.5v2.7c0,0.5-0.7,0.9-1.7,0.9s-1.7-0.4-1.7-0.9v-2.7c0-0.4,0.8-0.8,1.7-0.8S766.9,56.1,766.9,56.5z" />
	<path class="st4" d="M766.9,60.9v2.8c0,0.4-0.7,0.8-1.7,0.8h-0.5c-0.5,0-1-0.3-1.2-0.8l0,0v-2.8l0,0l0.3-0.3h1.9   C766.4,60.2,766.9,60.6,766.9,60.9z" />
	<path class="st6" d="M769.4,60.1L769.4,60.1z" />
	<line class="st4" x1="768.2" y1="60.1" x2="767.7" y2="60.1" />
</g>

</g>
</svg>
