<?xml version="1.0" encoding="utf-8"?>
<svg xmlns="http://www.w3.org/2000/svg" viewBox="-6.7 -6.7 39 39" width="36" height="36">
  <g transform="translate(-360.6 -141.9)">
    <line fill="none" stroke="#64748B" stroke-width="2.13" stroke-linecap="round" stroke-linejoin="round" x1="381.2" y1="157.2" x2="383" y2="157.2"/>
    <line fill="none" stroke="#64748B" stroke-width="2.13" stroke-linecap="round" stroke-linejoin="round" x1="379.4" y1="153" x2="380.7" y2="151.7"/>
    <line fill="none" stroke="#64748B" stroke-width="2.13" stroke-linecap="round" stroke-linejoin="round" x1="375.2" y1="151.2" x2="375.2" y2="149.4"/>
    <line fill="none" stroke="#64748B" stroke-width="2.13" stroke-linecap="round" stroke-linejoin="round" x1="371" y1="153" x2="369.7" y2="151.7"/>
    <line fill="none" stroke="#64748B" stroke-width="2.13" stroke-linecap="round" stroke-linejoin="round" x1="369.2" y1="157.2" x2="367.4" y2="157.2"/>
    <line fill="none" stroke="#64748B" stroke-width="2.13" stroke-linecap="round" stroke-linejoin="round" x1="371" y1="161.4" x2="369.7" y2="162.7"/>
    <line fill="none" stroke="#64748B" stroke-width="2.13" stroke-linecap="round" stroke-linejoin="round" x1="375.2" y1="163.2" x2="375.2" y2="165"/>
    <line fill="none" stroke="#64748B" stroke-width="2.13" stroke-linecap="round" stroke-linejoin="round" x1="379.4" y1="161.4" x2="380.7" y2="162.7"/>
    <line fill="none" stroke="#64748B" stroke-width="2.13" stroke-linecap="round" stroke-linejoin="round" x1="381.2" y1="157.2" x2="383" y2="157.2"/>
    <path fill="none" stroke="#64748B" stroke-width="2.13" stroke-linecap="round" stroke-linejoin="round" d="M366.7,143.4h17c2.9,0,5.3,2.4,5.3,5.3v17c0,2.9-2.4,5.3-5.3,5.3h-17c-2.9,0-5.3-2.4-5.3-5.3v-17 C361.4,145.8,363.8,143.4,366.7,143.4z"/>
  </g>
</svg>
