<svg xmlns="http://www.w3.org/2000/svg" xmlns:xlink="http://www.w3.org/1999/xlink" width="38.6064453125" height="39.5694580078125" viewBox="0 0 38.6064453125 39.5694580078125" fill="none"><path d="M32.2616 0L6.34504 0C2.84077 0 0 2.84074 0 6.34499L0 33.2244C0 36.7287 2.84077 39.5694 6.34504 39.5694L32.2616 39.5694C35.7658 39.5694 38.6066 36.7287 38.6066 33.2244L38.6066 6.34499C38.6066 2.84074 35.7658 0 32.2616 0ZM2.13001 6.34499C2.13001 4.01711 4.01715 2.13 6.34504 2.13L32.2616 2.13C34.5895 2.13 36.4766 4.01711 36.4766 6.34499L36.4766 33.2244C36.4766 35.5523 34.5895 37.4394 32.2616 37.4394L6.34504 37.4394C4.01715 37.4394 2.13001 35.5523 2.13001 33.2244L2.13001 6.34499Z" fill-rule="evenodd"  fill="#64748B" ></path><path d="M9.42385 20.7932C9.33787 20.2381 9.29447 19.6797 9.29366 19.118L9.29366 19.1179C9.29286 18.5964 9.32863 18.0774 9.40099 17.5608C9.47397 17.0464 9.5828 16.5392 9.72748 16.0392C9.76906 15.8955 9.81354 15.7529 9.86091 15.6115C10.0162 15.6612 10.1757 15.6782 10.3393 15.6625C10.528 15.6479 10.7063 15.5867 10.8741 15.479C11.0382 15.3738 11.1694 15.2352 11.2677 15.0634C11.3598 14.9024 11.4083 14.72 11.4083 14.5345L11.4083 12.2963C11.4083 12.2802 11.4079 12.2641 11.4072 12.248L11.4072 12.2474C11.4071 12.2442 11.4063 12.2311 11.4054 12.2181C11.391 12.0233 11.3338 11.8437 11.2337 11.6793C11.1478 11.5382 11.0375 11.4201 10.9031 11.3253C10.7028 11.1758 10.4743 11.1011 10.2177 11.1011C9.99982 11.1011 9.80132 11.1557 9.62218 11.2651L7.72646 12.2116C7.64539 12.2521 7.57002 12.3027 7.50208 12.3619C7.50338 12.3599 7.50206 12.3604 7.49866 12.3631C7.48411 12.3746 7.43146 12.4258 7.38439 12.4823C7.19847 12.7051 7.10551 12.9619 7.10551 13.2526C7.10551 13.5437 7.19866 13.8007 7.38495 14.0237C7.4085 14.0518 7.43348 14.0788 7.4598 14.1044L7.46054 14.1054C7.46577 14.1107 7.48754 14.131 7.51013 14.1503C7.60875 14.2346 7.7142 14.3005 7.82648 14.3479C7.69333 14.6953 7.57492 15.0481 7.47125 15.4065C7.2963 16.008 7.16431 16.6198 7.07528 17.2418C6.98538 17.8631 6.93994 18.4885 6.93898 19.1179C6.93802 19.8034 6.98921 20.4851 7.09255 21.1629C7.19593 21.8407 7.35004 22.5058 7.55487 23.1581C7.75957 23.811 8.01221 24.4435 8.3128 25.0556C8.61491 25.6689 8.96139 26.2543 9.35224 26.8118C9.4136 26.8993 9.48756 26.9767 9.57141 27.0418C9.5687 27.0409 9.56957 27.0424 9.57343 27.0458C9.59002 27.0602 9.66183 27.1089 9.73904 27.1484C9.90902 27.2354 10.0884 27.2789 10.2772 27.2789C10.3106 27.2789 10.3437 27.2776 10.3765 27.2748C10.548 27.2739 10.7119 27.2361 10.8681 27.1615C10.9386 27.1279 11.0051 27.0866 11.0664 27.0385C11.0651 27.0402 11.0663 27.0398 11.0693 27.0376C11.0822 27.0283 11.1302 26.9869 11.1743 26.9414C11.2764 26.836 11.3562 26.7161 11.4137 26.5815C11.4788 26.432 11.5113 26.2756 11.5113 26.1122C11.5113 25.9496 11.479 25.7937 11.4144 25.6444C11.3732 25.5477 11.3204 25.4585 11.2562 25.3767C10.9461 24.9328 10.6707 24.467 10.43 23.9792C10.1826 23.4788 9.97455 22.9615 9.80594 22.4275C9.63721 21.8931 9.50985 21.3484 9.42385 20.7932Z" fill-rule="evenodd"  fill="#64748B" ></path><path d="M30.5438 22.9911C30.0484 22.8809 29.5441 23.1354 29.3386 23.5994C29.234 23.8357 29.1212 24.0684 29.0004 24.2976C28.8802 24.5244 28.7521 24.7473 28.6161 24.9663C28.4808 25.184 28.3379 25.3964 28.1874 25.6034C28.0368 25.8106 27.879 26.0121 27.714 26.2077C27.5487 26.4047 27.3772 26.5949 27.1994 26.7781C27.0222 26.9599 26.8385 27.1358 26.6483 27.3055C26.4578 27.4755 26.2623 27.6376 26.0618 27.7917C25.8594 27.9475 25.6528 28.0951 25.4419 28.2345C25.2308 28.374 25.0148 28.5058 24.7938 28.6299C24.5727 28.754 24.3479 28.8698 24.1196 28.9771C23.8917 29.0834 23.6599 29.1818 23.4242 29.2724C23.1901 29.3619 22.9527 29.4428 22.7118 29.5148C22.4695 29.5884 22.2255 29.6525 21.98 29.7074C21.8975 29.7256 21.8146 29.7428 21.7315 29.7591C21.7183 29.7065 21.7015 29.6546 21.681 29.6033C21.677 29.5933 21.6728 29.5834 21.6685 29.5735L21.6684 29.5731C21.6675 29.5711 21.664 29.5632 21.6603 29.5552C21.6321 29.4936 21.5993 29.4353 21.5619 29.3801C21.4724 29.2341 21.3535 29.1126 21.2049 29.0155C20.9994 28.8812 20.7758 28.8179 20.5341 28.8258L20.4928 28.8258C20.3047 28.8258 20.12 28.8756 19.9575 28.9701L18.0676 30.0688C17.8884 30.1767 17.748 30.3141 17.6463 30.4811C17.593 30.5686 17.5519 30.6605 17.5229 30.7566C17.4774 30.8813 17.4546 31.0132 17.4546 31.1523C17.4546 31.3972 17.5251 31.6197 17.666 31.8198C17.7282 31.9081 17.8034 31.9864 17.8892 32.0521L19.6282 33.3841C19.7126 33.4558 19.8058 33.5145 19.9078 33.5603C20.062 33.6308 20.224 33.6661 20.3936 33.6661C20.5633 33.6661 20.7253 33.6308 20.8795 33.5603C21.0162 33.4989 21.1372 33.4142 21.2424 33.3063C21.3395 33.2067 21.4171 33.0934 21.4753 32.9664C21.4798 32.9567 21.4841 32.9469 21.4883 32.937L21.4884 32.9367C21.4893 32.9347 21.4926 32.9267 21.4958 32.9187C21.553 32.7761 21.5816 32.6282 21.5816 32.4749C21.5816 32.4075 21.576 32.3411 21.565 32.2757C21.8532 32.2317 22.1396 32.1779 22.4242 32.1144C22.7253 32.0461 23.023 31.9677 23.3173 31.8792C23.6156 31.7887 23.9091 31.6875 24.1977 31.5756C24.4845 31.4657 24.7682 31.3444 25.0488 31.2118C25.3272 31.0812 25.6015 30.9399 25.8718 30.7878C26.1421 30.6358 26.4067 30.4738 26.6657 30.3019C26.9249 30.1298 27.1772 29.9484 27.4226 29.7578C27.6662 29.5702 27.9045 29.3723 28.1374 29.1638C28.3687 28.957 28.5925 28.742 28.809 28.5188C29.0258 28.2943 29.2343 28.0626 29.4344 27.8238C29.6349 27.5845 29.8266 27.3386 30.0094 27.086C30.1926 26.833 30.3666 26.5738 30.5314 26.3082C30.6959 26.0431 30.8513 25.7722 30.9976 25.4956C31.1378 25.2296 31.2689 24.959 31.391 24.6839C31.4545 24.5559 31.4933 24.4192 31.5073 24.274C31.5082 24.2644 31.509 24.2548 31.5097 24.2452L31.5097 24.2449C31.5098 24.2429 31.5103 24.2352 31.5107 24.2274C31.5194 24.061 31.4942 23.8998 31.435 23.7438C31.4315 23.7346 31.4279 23.7254 31.4241 23.7163L31.424 23.7159C31.4233 23.7141 31.4202 23.7067 31.417 23.6994C31.3467 23.5366 31.2454 23.3971 31.1131 23.2808C31.0341 23.2105 30.9482 23.1528 30.8552 23.1076C30.7588 23.0547 30.655 23.0159 30.5438 22.9911Z" fill-rule="evenodd"  fill="#64748B" ></path><path d="M19.6196 8.35766C19.6713 8.36551 19.7235 8.36954 19.7758 8.36973C20.0155 8.37055 20.2544 8.37993 20.4923 8.39789C20.7313 8.41588 20.9695 8.44246 21.2068 8.4776C21.4461 8.51223 21.6826 8.55525 21.9164 8.60666C22.1521 8.65767 22.3848 8.71703 22.6146 8.78475C22.8456 8.85285 23.074 8.92879 23.2997 9.01257C23.527 9.0967 23.7502 9.18825 23.9693 9.28723C24.1899 9.38647 24.4061 9.49331 24.6179 9.60773C24.8315 9.72229 25.0402 9.84415 25.2441 9.97329C25.4501 10.1029 25.6508 10.2395 25.8464 10.3828C26.0432 10.5263 26.2341 10.6762 26.4191 10.8325C26.6057 10.9902 26.7869 11.1539 26.9629 11.3238C27.1378 11.4935 27.3073 11.6692 27.4714 11.8508C27.5414 11.9286 27.6103 12.0076 27.6782 12.0877C27.6443 12.1156 27.6119 12.1455 27.5807 12.1774C27.5104 12.2496 27.451 12.3311 27.4039 12.4194C27.4043 12.4168 27.4031 12.4178 27.4006 12.4219C27.3899 12.4397 27.3559 12.5139 27.3306 12.5917C27.2462 12.8517 27.2462 13.1117 27.3306 13.3716C27.4125 13.6239 27.5856 13.8365 27.816 13.9678L29.6917 15.0374C29.8776 15.1538 30.0825 15.2119 30.3062 15.2119C30.5569 15.2119 30.7838 15.1389 30.9871 14.9928C31.2122 14.8315 31.3685 14.6185 31.456 14.3539C31.4844 14.2681 31.5018 14.179 31.5077 14.0888L31.6499 11.9124C31.6672 11.7747 31.6598 11.6366 31.6277 11.4981C31.5848 11.3219 31.5095 11.1656 31.4016 11.0294C31.2898 10.888 31.1526 10.7777 30.9901 10.6987C30.981 10.6942 30.9718 10.6899 30.9626 10.6857L30.9622 10.6856C30.9604 10.6847 30.9529 10.6814 30.9453 10.6781C30.7941 10.613 30.6361 10.5805 30.4714 10.5805C30.3234 10.5805 30.1809 10.607 30.044 10.66C29.9413 10.6986 29.8469 10.75 29.7606 10.8143C29.7488 10.7992 29.7369 10.7842 29.725 10.7692C29.5393 10.5361 29.3463 10.3099 29.1459 10.0904C28.9473 9.87095 28.7398 9.65803 28.5233 9.45164C28.3106 9.24808 28.0907 9.05134 27.8635 8.86144C27.6359 8.6712 27.4026 8.48939 27.1637 8.31601C26.9237 8.14169 26.6784 7.97611 26.4276 7.81928C26.1781 7.66271 25.9231 7.5149 25.6627 7.37585C25.402 7.23661 25.137 7.10677 24.8677 6.98635C24.5987 6.86605 24.3259 6.75512 24.0493 6.65358C23.7723 6.55191 23.4931 6.46017 23.2117 6.37836C22.9299 6.29574 22.6447 6.22319 22.3558 6.1607C22.0685 6.09855 21.7793 6.0463 21.4885 6.00395C21.1966 5.96226 20.9042 5.93058 20.6114 5.90893C20.3281 5.88698 20.0435 5.87519 19.7575 5.87358C19.3314 5.85123 18.9052 5.85172 18.479 5.87504C18.4672 5.87568 18.4555 5.87652 18.4437 5.87756L18.4433 5.87757C18.4409 5.87776 18.4314 5.87867 18.422 5.8797C18.2745 5.89575 18.1343 5.9379 18.0015 6.00614C17.9884 6.0129 17.9753 6.01994 17.9625 6.02724L17.962 6.02745C17.9594 6.02891 17.949 6.03491 17.9388 6.04109C17.7946 6.12793 17.6746 6.24016 17.5788 6.37778C17.4838 6.51267 17.4197 6.66108 17.3867 6.82302C17.3846 6.83329 17.3826 6.84358 17.3808 6.8539L17.3808 6.85425C17.3804 6.85634 17.379 6.8647 17.3777 6.87307C17.3582 6.99907 17.3585 7.12466 17.3787 7.24983C17.3968 7.3729 17.4334 7.49103 17.4885 7.60424C17.4949 7.61736 17.5016 7.63035 17.5085 7.64319L17.5087 7.64364C17.5101 7.64625 17.5158 7.65659 17.5216 7.66684C17.6048 7.81213 17.7135 7.93404 17.8476 8.03258C17.9844 8.13418 18.136 8.20289 18.3026 8.23872C18.3133 8.24104 18.3241 8.24319 18.3349 8.24517L18.3353 8.24525C18.3375 8.24567 18.3463 8.24721 18.355 8.24865C18.4404 8.26257 18.5254 8.2673 18.6103 8.26286C18.9481 8.27518 19.2845 8.30678 19.6196 8.35766Z" fill-rule="evenodd"  fill="#64748B" ></path></svg>