<svg xmlns="http://www.w3.org/2000/svg" xmlns:xlink="http://www.w3.org/1999/xlink" width="38.32177734375" height="38.9051513671875" viewBox="0 0 38.32177734375 38.9051513671875" fill="none"><path d="M22.8711 19.4529C22.8711 21.5355 21.2096 23.2237 19.1601 23.2237C17.1107 23.2237 15.4492 21.5355 15.4492 19.4529C15.4492 17.3704 17.1107 15.6821 19.1601 15.6821C21.2096 15.6821 22.8711 17.3704 22.8711 19.4529Z"   fill="#64748B" ></path><path d="M19.1602 24.2887C21.7979 24.2887 23.9361 22.0906 23.9361 19.453C23.9361 16.7822 21.8309 14.6172 19.1602 14.6172C16.5225 14.6172 14.3843 16.8153 14.3843 19.453C14.3843 22.1237 16.4895 24.2887 19.1602 24.2887ZM19.1602 16.7472C20.6546 16.7472 21.8061 17.9586 21.8061 19.453C21.8061 20.9143 20.6215 22.1588 19.1602 22.1588C17.6658 22.1588 16.5143 20.9473 16.5143 19.453C16.5143 17.9917 17.6989 16.7472 19.1602 16.7472Z" fill-rule="evenodd"  fill="#64748B" ></path><path d="M29.3627 18.3888L26.9893 18.3888C26.9544 18.3888 26.9196 18.3905 26.8849 18.3939C26.8502 18.3973 26.8158 18.4024 26.7815 18.4092C26.7473 18.416 26.7135 18.4245 26.6802 18.4346C26.6468 18.4448 26.614 18.4565 26.5818 18.4698C26.5495 18.4832 26.518 18.498 26.4873 18.5145C26.4565 18.5309 26.4266 18.5488 26.3976 18.5682C26.3686 18.5876 26.3406 18.6083 26.3137 18.6304C26.2867 18.6525 26.2609 18.6759 26.2362 18.7006C26.2116 18.7252 26.1882 18.751 26.1661 18.778C26.1439 18.8049 26.1232 18.8329 26.1038 18.8619C26.0844 18.8908 26.0665 18.9207 26.0501 18.9515C26.0336 18.9822 26.0187 19.0137 26.0054 19.0459C25.992 19.0781 25.9803 19.1109 25.9702 19.1442C25.9601 19.1776 25.9516 19.2114 25.9448 19.2456C25.938 19.2798 25.9329 19.3142 25.9294 19.3489C25.926 19.3836 25.9243 19.4184 25.9243 19.4532C25.9243 19.4881 25.926 19.5229 25.9294 19.5576C25.9329 19.5923 25.938 19.6267 25.9448 19.6609C25.9516 19.6951 25.9601 19.7289 25.9702 19.7622C25.9803 19.7956 25.992 19.8284 26.0054 19.8606C26.0187 19.8928 26.0336 19.9243 26.0501 19.955C26.0665 19.9857 26.0844 20.0156 26.1038 20.0446C26.1232 20.0736 26.1439 20.1016 26.1661 20.1285C26.1882 20.1554 26.2116 20.1812 26.2362 20.2059C26.2609 20.2306 26.2867 20.2539 26.3137 20.2761C26.3406 20.2982 26.3686 20.3189 26.3976 20.3383C26.4266 20.3576 26.4565 20.3755 26.4873 20.392C26.518 20.4084 26.5495 20.4233 26.5818 20.4366C26.614 20.45 26.6468 20.4617 26.6802 20.4718C26.7135 20.482 26.7473 20.4904 26.7815 20.4972C26.8158 20.504 26.8502 20.5091 26.8849 20.5125C26.9196 20.516 26.9544 20.5177 26.9893 20.5177L29.3627 20.5177C29.3976 20.5177 29.4324 20.516 29.4671 20.5125C29.5018 20.5091 29.5363 20.504 29.5705 20.4972C29.6047 20.4904 29.6385 20.482 29.6719 20.4718C29.7053 20.4617 29.7381 20.45 29.7703 20.4366C29.8025 20.4233 29.834 20.4084 29.8648 20.392C29.8955 20.3755 29.9254 20.3576 29.9544 20.3383C29.9834 20.3189 30.0114 20.2982 30.0384 20.2761C30.0653 20.2539 30.0911 20.2306 30.1158 20.2059C30.1405 20.1812 30.1639 20.1554 30.186 20.1285C30.2081 20.1016 30.2289 20.0736 30.2482 20.0446C30.2676 20.0156 30.2855 19.9857 30.302 19.955C30.3184 19.9243 30.3333 19.8928 30.3467 19.8606C30.36 19.8284 30.3717 19.7956 30.3819 19.7622C30.392 19.7289 30.4005 19.6951 30.4073 19.6609C30.4141 19.6267 30.4192 19.5923 30.4226 19.5576C30.426 19.5229 30.4277 19.4881 30.4277 19.4532C30.4277 19.4184 30.426 19.3836 30.4226 19.3489C30.4192 19.3142 30.4141 19.2798 30.4073 19.2456C30.4005 19.2114 30.392 19.1776 30.3819 19.1442C30.3717 19.1109 30.36 19.0781 30.3467 19.0459C30.3333 19.0137 30.3184 18.9822 30.302 18.9515C30.2855 18.9207 30.2676 18.8908 30.2482 18.8619C30.2289 18.8329 30.2081 18.8049 30.186 18.778C30.1639 18.751 30.1405 18.7252 30.1158 18.7006C30.0911 18.6759 30.0653 18.6525 30.0384 18.6304C30.0114 18.6083 29.9834 18.5876 29.9544 18.5682C29.9254 18.5488 29.8955 18.5309 29.8648 18.5145C29.834 18.498 29.8025 18.4832 29.7703 18.4698C29.7381 18.4565 29.7053 18.4448 29.6719 18.4346C29.6385 18.4245 29.6047 18.416 29.5705 18.4092C29.5363 18.4024 29.5018 18.3973 29.4671 18.3939C29.4324 18.3905 29.3976 18.3888 29.3627 18.3888Z" fill-rule="evenodd"  fill="#64748B" ></path><path d="M23.9362 13.0826L23.9358 13.0831C23.8378 13.1827 23.7623 13.2971 23.7093 13.4265C23.6564 13.5558 23.6299 13.6903 23.6299 13.8301L23.6299 13.8386C23.6345 14.4224 24.1088 14.8944 24.6936 14.8951L24.6949 14.8951C24.8376 14.8951 24.9748 14.8675 25.1064 14.8124C25.238 14.7572 25.3539 14.6788 25.454 14.5771L25.4544 14.5766L27.1319 12.872L27.1324 12.8716C27.3213 12.6796 27.4379 12.4164 27.4383 12.1259L27.4383 12.1246C27.4383 11.5368 26.9622 11.0603 26.3746 11.0596L26.3733 11.0596C26.2306 11.0596 26.0934 11.0871 25.9618 11.1423C25.8302 11.1974 25.7143 11.2758 25.6142 11.3776L25.6137 11.3781L23.9362 13.0826Z" fill-rule="evenodd"  fill="#64748B" ></path><path d="M18.0972 9.08624L18.0972 11.4979C18.0972 11.5328 18.0989 11.5676 18.1023 11.6023C18.1057 11.637 18.1108 11.6715 18.1176 11.7057C18.1244 11.7399 18.1329 11.7737 18.143 11.8071C18.1531 11.8405 18.1648 11.8733 18.1782 11.9055C18.1915 11.9377 18.2064 11.9692 18.2228 12C18.2393 12.0307 18.2572 12.0606 18.2765 12.0896C18.2959 12.1186 18.3166 12.1466 18.3387 12.1736C18.3608 12.2005 18.3842 12.2263 18.4089 12.251C18.4335 12.2757 18.4593 12.2991 18.4863 12.3212C18.5132 12.3433 18.5412 12.3641 18.5701 12.3835C18.5991 12.4028 18.629 12.4207 18.6597 12.4372C18.6905 12.4536 18.7219 12.4685 18.7541 12.4819C18.7863 12.4952 18.8191 12.507 18.8525 12.5171C18.8858 12.5272 18.9196 12.5357 18.9538 12.5425C18.988 12.5493 19.0224 12.5544 19.0571 12.5578C19.0918 12.5612 19.1265 12.5629 19.1614 12.5629C19.1963 12.5629 19.231 12.5612 19.2657 12.5578C19.3004 12.5544 19.3348 12.5493 19.369 12.5425C19.4032 12.5357 19.437 12.5272 19.4703 12.5171C19.5037 12.507 19.5365 12.4952 19.5687 12.4819C19.6009 12.4685 19.6323 12.4536 19.6631 12.4372C19.6938 12.4207 19.7237 12.4028 19.7527 12.3835C19.7816 12.3641 19.8096 12.3433 19.8365 12.3212C19.8635 12.2991 19.8893 12.2757 19.9139 12.251C19.9386 12.2263 19.9619 12.2005 19.9841 12.1736C20.0062 12.1466 20.0269 12.1186 20.0463 12.0896C20.0656 12.0606 20.0835 12.0307 20.1 12C20.1164 11.9692 20.1313 11.9377 20.1446 11.9055C20.158 11.8733 20.1697 11.8405 20.1798 11.8071C20.1899 11.7737 20.1984 11.7399 20.2052 11.7057C20.212 11.6715 20.2171 11.637 20.2205 11.6023C20.2239 11.5676 20.2256 11.5328 20.2256 11.4979L20.2256 9.08624C20.2256 9.05136 20.2239 9.01656 20.2205 8.98185C20.2171 8.94714 20.212 8.91268 20.2052 8.87847C20.1984 8.84426 20.1899 8.81046 20.1798 8.77709C20.1697 8.74371 20.158 8.71091 20.1446 8.67868C20.1313 8.64646 20.1164 8.61496 20.1 8.5842C20.0835 8.55344 20.0656 8.52356 20.0463 8.49456C20.0269 8.46556 20.0062 8.43757 19.9841 8.41061C19.9619 8.38365 19.9386 8.35783 19.9139 8.33317C19.8893 8.30851 19.8635 8.28511 19.8365 8.26298C19.8096 8.24086 19.7816 8.2201 19.7527 8.20073C19.7237 8.18135 19.6938 8.16344 19.6631 8.14699C19.6323 8.13055 19.6009 8.11566 19.5687 8.10231C19.5365 8.08896 19.5037 8.07723 19.4703 8.0671C19.437 8.05697 19.4032 8.04851 19.369 8.0417C19.3348 8.0349 19.3004 8.02979 19.2657 8.02637C19.231 8.02295 19.1963 8.02124 19.1614 8.02124C19.1265 8.02124 19.0918 8.02295 19.0571 8.02637C19.0224 8.02979 18.988 8.0349 18.9538 8.0417C18.9196 8.04851 18.8858 8.05697 18.8525 8.0671C18.8191 8.07723 18.7863 8.08896 18.7541 8.10231C18.7219 8.11566 18.6905 8.13055 18.6597 8.14699C18.629 8.16344 18.5991 8.18135 18.5701 8.20073C18.5412 8.2201 18.5132 8.24086 18.4863 8.26298C18.4593 8.28511 18.4335 8.30851 18.4089 8.33317C18.3842 8.35783 18.3608 8.38365 18.3387 8.41061C18.3166 8.43757 18.2959 8.46556 18.2765 8.49456C18.2572 8.52356 18.2393 8.55344 18.2228 8.5842C18.2064 8.61496 18.1915 8.64646 18.1782 8.67868C18.1648 8.71091 18.1531 8.74371 18.143 8.77709C18.1329 8.81046 18.1244 8.84426 18.1176 8.87847C18.1108 8.91268 18.1057 8.94714 18.1023 8.98185C18.0989 9.01656 18.0972 9.05136 18.0972 9.08624Z" fill-rule="evenodd"  fill="#64748B" ></path><path d="M12.8535 14.5765L12.854 14.5771C13.0472 14.7734 13.316 14.8951 13.6131 14.8951C14.2013 14.8951 14.6781 14.4183 14.6781 13.8301C14.6781 13.539 14.5614 13.2753 14.3722 13.0831L14.3717 13.0826L12.6942 11.3781L12.6937 11.3775C12.5005 11.1813 12.2318 11.0596 11.9346 11.0596C11.6436 11.0596 11.3798 11.1763 11.1876 11.3655C10.9913 11.5587 10.8696 11.8274 10.8696 12.1246C10.8696 12.4156 10.9864 12.6794 11.1756 12.8716L11.176 12.8721L12.8535 14.5765Z" fill-rule="evenodd"  fill="#64748B" ></path><path d="M8.94635 20.5177L11.3198 20.5177C11.3546 20.5177 11.3894 20.516 11.4241 20.5125C11.4589 20.5091 11.4933 20.504 11.5275 20.4972C11.5617 20.4904 11.5955 20.482 11.6289 20.4718C11.6623 20.4617 11.6951 20.45 11.7273 20.4366C11.7595 20.4233 11.791 20.4084 11.8218 20.392C11.8526 20.3755 11.8824 20.3576 11.9114 20.3383C11.9404 20.3189 11.9684 20.2982 11.9954 20.2761C12.0224 20.2539 12.0482 20.2306 12.0728 20.2059C12.0975 20.1812 12.1209 20.1554 12.143 20.1285C12.1651 20.1016 12.1859 20.0736 12.2053 20.0446C12.2247 20.0156 12.2426 19.9857 12.259 19.955C12.2754 19.9243 12.2903 19.8928 12.3037 19.8606C12.317 19.8284 12.3288 19.7956 12.3389 19.7622C12.349 19.7289 12.3575 19.6951 12.3643 19.6609C12.3711 19.6267 12.3762 19.5923 12.3796 19.5576C12.383 19.5229 12.3848 19.4881 12.3848 19.4532C12.3848 19.4184 12.383 19.3836 12.3796 19.3489C12.3762 19.3142 12.3711 19.2798 12.3643 19.2456C12.3575 19.2114 12.349 19.1776 12.3389 19.1442C12.3288 19.1109 12.317 19.0781 12.3037 19.0459C12.2903 19.0137 12.2754 18.9822 12.259 18.9515C12.2426 18.9207 12.2247 18.8908 12.2053 18.8619C12.1859 18.8329 12.1651 18.8049 12.143 18.778C12.1209 18.751 12.0975 18.7252 12.0728 18.7006C12.0482 18.6759 12.0224 18.6525 11.9954 18.6304C11.9684 18.6083 11.9404 18.5876 11.9114 18.5682C11.8824 18.5488 11.8526 18.5309 11.8218 18.5145C11.791 18.498 11.7595 18.4832 11.7273 18.4698C11.6951 18.4565 11.6623 18.4448 11.6289 18.4346C11.5955 18.4245 11.5617 18.416 11.5275 18.4092C11.4933 18.4024 11.4589 18.3973 11.4241 18.3939C11.3894 18.3905 11.3546 18.3888 11.3198 18.3888L8.94635 18.3888C8.91146 18.3888 8.87667 18.3905 8.84196 18.3939C8.80725 18.3973 8.77278 18.4024 8.73857 18.4092C8.70436 18.416 8.67057 18.4245 8.63719 18.4346C8.60382 18.4448 8.57101 18.4565 8.53879 18.4698C8.50656 18.4832 8.47507 18.498 8.44431 18.5145C8.41355 18.5309 8.38367 18.5488 8.35466 18.5682C8.32566 18.5876 8.29768 18.6083 8.27072 18.6304C8.24376 18.6525 8.21794 18.6759 8.19328 18.7006C8.16861 18.7252 8.14522 18.751 8.12309 18.778C8.10096 18.8049 8.08021 18.8329 8.06083 18.8619C8.04145 18.8908 8.02354 18.9207 8.0071 18.9515C7.99066 18.9822 7.97576 19.0137 7.96242 19.0459C7.94907 19.0781 7.93733 19.1109 7.92721 19.1442C7.91708 19.1776 7.90861 19.2114 7.90181 19.2456C7.89501 19.2798 7.8899 19.3142 7.88648 19.3489C7.88306 19.3836 7.88135 19.4184 7.88135 19.4532C7.88135 19.4881 7.88306 19.5229 7.88648 19.5576C7.8899 19.5923 7.89501 19.6267 7.90181 19.6609C7.90861 19.6951 7.91708 19.7289 7.92721 19.7622C7.93733 19.7956 7.94907 19.8284 7.96242 19.8606C7.97576 19.8928 7.99066 19.9243 8.0071 19.955C8.02354 19.9857 8.04145 20.0156 8.06083 20.0446C8.08021 20.0736 8.10096 20.1016 8.12309 20.1285C8.14522 20.1554 8.16861 20.1812 8.19328 20.2059C8.21794 20.2306 8.24376 20.2539 8.27072 20.2761C8.29768 20.2982 8.32566 20.3189 8.35466 20.3383C8.38367 20.3576 8.41355 20.3755 8.44431 20.392C8.47507 20.4084 8.50656 20.4233 8.53879 20.4366C8.57101 20.45 8.60382 20.4617 8.63719 20.4718C8.67057 20.482 8.70436 20.4904 8.73857 20.4972C8.77278 20.504 8.80725 20.5091 8.84196 20.5125C8.87667 20.516 8.91146 20.5177 8.94635 20.5177Z" fill-rule="evenodd"  fill="#64748B" ></path><path d="M14.3717 25.8228L14.3722 25.8224C14.5614 25.6302 14.6781 25.3664 14.6781 25.0754C14.6781 24.7859 14.5626 24.5234 14.3751 24.3314C14.3702 24.3263 14.3652 24.3213 14.3601 24.3163C14.1679 24.1271 13.9041 24.0104 13.6131 24.0104C13.316 24.0104 13.0472 24.1321 12.854 24.3283L12.8535 24.3289L11.176 26.0334L11.1756 26.0339C10.9864 26.2261 10.8696 26.4899 10.8696 26.7809C10.8696 27.3691 11.3464 27.8459 11.9346 27.8459C12.2318 27.8459 12.5005 27.7242 12.6937 27.5279L12.6942 27.5273L14.3717 25.8228Z" fill-rule="evenodd"  fill="#64748B" ></path><path d="M20.2256 29.8191L20.2256 27.4074C20.2256 27.3725 20.2239 27.3377 20.2205 27.303C20.2171 27.2683 20.212 27.2338 20.2052 27.1996C20.1984 27.1654 20.1899 27.1316 20.1798 27.0983C20.1697 27.0649 20.158 27.0321 20.1446 26.9998C20.1313 26.9676 20.1164 26.9361 20.1 26.9054C20.0835 26.8746 20.0656 26.8447 20.0463 26.8157C20.0269 26.7867 20.0062 26.7587 19.9841 26.7318C19.9619 26.7048 19.9386 26.679 19.9139 26.6543C19.8893 26.6297 19.8635 26.6063 19.8365 26.5842C19.8096 26.562 19.7816 26.5413 19.7527 26.5219C19.7237 26.5025 19.6938 26.4846 19.6631 26.4682C19.6323 26.4517 19.6009 26.4368 19.5687 26.4235C19.5365 26.4101 19.5037 26.3984 19.4703 26.3883C19.437 26.3781 19.4032 26.3697 19.369 26.3629C19.3348 26.3561 19.3004 26.351 19.2657 26.3475C19.231 26.3441 19.1963 26.3424 19.1614 26.3424C19.1265 26.3424 19.0918 26.3441 19.0571 26.3475C19.0224 26.351 18.988 26.3561 18.9538 26.3629C18.9196 26.3697 18.8858 26.3781 18.8525 26.3883C18.8191 26.3984 18.7863 26.4101 18.7541 26.4235C18.7219 26.4368 18.6905 26.4517 18.6597 26.4682C18.629 26.4846 18.5991 26.5025 18.5701 26.5219C18.5412 26.5413 18.5132 26.562 18.4863 26.5842C18.4593 26.6063 18.4335 26.6297 18.4089 26.6543C18.3842 26.679 18.3608 26.7048 18.3387 26.7318C18.3166 26.7587 18.2959 26.7867 18.2765 26.8157C18.2572 26.8447 18.2393 26.8746 18.2228 26.9054C18.2064 26.9361 18.1915 26.9676 18.1782 26.9998C18.1648 27.0321 18.1531 27.0649 18.143 27.0983C18.1329 27.1316 18.1244 27.1654 18.1176 27.1996C18.1108 27.2338 18.1057 27.2683 18.1023 27.303C18.0989 27.3377 18.0972 27.3725 18.0972 27.4074L18.0972 29.8191C18.0972 29.854 18.0989 29.8888 18.1023 29.9235C18.1057 29.9582 18.1108 29.9927 18.1176 30.0269C18.1244 30.0611 18.1329 30.0949 18.143 30.1283C18.1531 30.1616 18.1648 30.1944 18.1782 30.2267C18.1915 30.2589 18.2064 30.2904 18.2228 30.3211C18.2393 30.3519 18.2572 30.3818 18.2765 30.4108C18.2959 30.4398 18.3166 30.4678 18.3387 30.4947C18.3608 30.5217 18.3842 30.5475 18.4089 30.5722C18.4335 30.5968 18.4593 30.6202 18.4863 30.6424C18.5132 30.6645 18.5412 30.6852 18.5701 30.7046C18.5991 30.724 18.629 30.7419 18.6597 30.7584C18.6905 30.7748 18.7219 30.7897 18.7541 30.803C18.7863 30.8164 18.8191 30.8281 18.8525 30.8382C18.8858 30.8484 18.9196 30.8568 18.9538 30.8636C18.988 30.8705 19.0224 30.8756 19.0571 30.879C19.0918 30.8824 19.1265 30.8841 19.1614 30.8841C19.1963 30.8841 19.231 30.8824 19.2657 30.879C19.3004 30.8756 19.3348 30.8705 19.369 30.8636C19.4032 30.8568 19.437 30.8484 19.4703 30.8382C19.5037 30.8281 19.5365 30.8164 19.5687 30.803C19.6009 30.7897 19.6323 30.7748 19.6631 30.7584C19.6938 30.7419 19.7237 30.724 19.7527 30.7046C19.7816 30.6852 19.8096 30.6645 19.8365 30.6424C19.8635 30.6202 19.8893 30.5968 19.9139 30.5722C19.9386 30.5475 19.9619 30.5217 19.9841 30.4947C20.0062 30.4678 20.0269 30.4398 20.0463 30.4108C20.0656 30.3818 20.0835 30.3519 20.1 30.3211C20.1164 30.2904 20.1313 30.2589 20.1446 30.2267C20.158 30.1944 20.1697 30.1616 20.1798 30.1283C20.1899 30.0949 20.1984 30.0611 20.2052 30.0269C20.212 29.9927 20.2171 29.9582 20.2205 29.9235C20.2239 29.8888 20.2256 29.854 20.2256 29.8191Z" fill-rule="evenodd"  fill="#64748B" ></path><path d="M27.1319 26.0334L25.4545 24.3289L25.454 24.3284C25.3539 24.2267 25.238 24.1482 25.1064 24.0931C24.9748 24.0379 24.8376 24.0104 24.6949 24.0104L24.6936 24.0104C24.106 24.0111 23.6299 24.4876 23.6299 25.0754L23.6299 25.0767C23.6302 25.3672 23.7469 25.6304 23.9358 25.8224L23.9362 25.8228L25.6137 27.5274L25.6142 27.5279C25.7143 27.6296 25.8302 27.708 25.9618 27.7632C26.0934 27.8183 26.2306 27.8459 26.3733 27.8459L26.3746 27.8459C26.6659 27.8455 26.9297 27.7283 27.1218 27.5385L27.4383 26.7843L27.4383 26.7809L27.4383 26.7807L27.4383 26.7774C27.4374 26.4878 27.3208 26.2253 27.1324 26.0339L27.1319 26.0334Z" fill-rule="evenodd"  fill="#64748B" ></path><path d="M29.3627 18.3888L26.9893 18.3888C26.9544 18.3888 26.9196 18.3905 26.8849 18.3939C26.8502 18.3973 26.8158 18.4024 26.7815 18.4092C26.7473 18.416 26.7135 18.4245 26.6802 18.4346C26.6468 18.4448 26.614 18.4565 26.5818 18.4698C26.5495 18.4832 26.518 18.498 26.4873 18.5145C26.4565 18.5309 26.4266 18.5488 26.3976 18.5682C26.3686 18.5876 26.3406 18.6083 26.3137 18.6304C26.2867 18.6525 26.2609 18.6759 26.2362 18.7006C26.2116 18.7252 26.1882 18.751 26.1661 18.778C26.1439 18.8049 26.1232 18.8329 26.1038 18.8619C26.0844 18.8908 26.0665 18.9207 26.0501 18.9515C26.0336 18.9822 26.0187 19.0137 26.0054 19.0459C25.992 19.0781 25.9803 19.1109 25.9702 19.1442C25.9601 19.1776 25.9516 19.2114 25.9448 19.2456C25.938 19.2798 25.9329 19.3142 25.9294 19.3489C25.926 19.3836 25.9243 19.4184 25.9243 19.4532C25.9243 19.4881 25.926 19.5229 25.9294 19.5576C25.9329 19.5923 25.938 19.6267 25.9448 19.6609C25.9516 19.6951 25.9601 19.7289 25.9702 19.7622C25.9803 19.7956 25.992 19.8284 26.0054 19.8606C26.0187 19.8928 26.0336 19.9243 26.0501 19.955C26.0665 19.9857 26.0844 20.0156 26.1038 20.0446C26.1232 20.0736 26.1439 20.1016 26.1661 20.1285C26.1882 20.1554 26.2116 20.1812 26.2362 20.2059C26.2609 20.2306 26.2867 20.2539 26.3137 20.2761C26.3406 20.2982 26.3686 20.3189 26.3976 20.3383C26.4266 20.3576 26.4565 20.3755 26.4873 20.392C26.518 20.4084 26.5495 20.4233 26.5818 20.4366C26.614 20.45 26.6468 20.4617 26.6802 20.4718C26.7135 20.482 26.7473 20.4904 26.7815 20.4972C26.8158 20.504 26.8502 20.5091 26.8849 20.5125C26.9196 20.516 26.9544 20.5177 26.9893 20.5177L29.3627 20.5177C29.3976 20.5177 29.4324 20.516 29.4671 20.5125C29.5018 20.5091 29.5363 20.504 29.5705 20.4972C29.6047 20.4904 29.6385 20.482 29.6719 20.4718C29.7053 20.4617 29.7381 20.45 29.7703 20.4366C29.8025 20.4233 29.834 20.4084 29.8648 20.392C29.8955 20.3755 29.9254 20.3576 29.9544 20.3383C29.9834 20.3189 30.0114 20.2982 30.0384 20.2761C30.0653 20.2539 30.0911 20.2306 30.1158 20.2059C30.1405 20.1812 30.1639 20.1554 30.186 20.1285C30.2081 20.1016 30.2289 20.0736 30.2482 20.0446C30.2676 20.0156 30.2855 19.9857 30.302 19.955C30.3184 19.9243 30.3333 19.8928 30.3467 19.8606C30.36 19.8284 30.3717 19.7956 30.3819 19.7622C30.392 19.7289 30.4005 19.6951 30.4073 19.6609C30.4141 19.6267 30.4192 19.5923 30.4226 19.5576C30.426 19.5229 30.4277 19.4881 30.4277 19.4532C30.4277 19.4184 30.426 19.3836 30.4226 19.3489C30.4192 19.3142 30.4141 19.2798 30.4073 19.2456C30.4005 19.2114 30.392 19.1776 30.3819 19.1442C30.3717 19.1109 30.36 19.0781 30.3467 19.0459C30.3333 19.0137 30.3184 18.9822 30.302 18.9515C30.2855 18.9207 30.2676 18.8908 30.2482 18.8619C30.2289 18.8329 30.2081 18.8049 30.186 18.778C30.1639 18.751 30.1405 18.7252 30.1158 18.7006C30.0911 18.6759 30.0653 18.6525 30.0384 18.6304C30.0114 18.6083 29.9834 18.5876 29.9544 18.5682C29.9254 18.5488 29.8955 18.5309 29.8648 18.5145C29.834 18.498 29.8025 18.4832 29.7703 18.4698C29.7381 18.4565 29.7053 18.4448 29.6719 18.4346C29.6385 18.4245 29.6047 18.416 29.5705 18.4092C29.5363 18.4024 29.5018 18.3973 29.4671 18.3939C29.4324 18.3905 29.3976 18.3888 29.3627 18.3888Z" fill-rule="evenodd"  fill="#64748B" ></path><path d="M31.9768 0L6.34547 0C2.84123 0 0.000488281 2.84075 0.000488281 6.345L0.000488281 32.5601C0.000488281 36.0644 2.84123 38.9051 6.34547 38.9051L31.9768 38.9051C35.481 38.9051 38.3218 36.0644 38.3218 32.5601L38.3218 6.345C38.3218 2.84075 35.481 0 31.9768 0ZM2.13048 6.345C2.13048 4.01712 4.0176 2.13 6.34547 2.13L31.9768 2.13C34.3047 2.13 36.1918 4.01712 36.1918 6.345L36.1918 32.5601C36.1918 34.888 34.3047 36.7751 31.9768 36.7751L6.34547 36.7751C4.0176 36.7751 2.13048 34.888 2.13048 32.5601L2.13048 6.345Z" fill-rule="evenodd"  fill="#64748B" ></path></svg>