<svg xmlns="http://www.w3.org/2000/svg" xmlns:xlink="http://www.w3.org/1999/xlink" width="38.6064453125" height="39.5694580078125" viewBox="0 0 38.6064453125 39.5694580078125" fill="none"><path d="M23.5132 29.376L23.5132 27.6668C23.5132 27.0786 23.0364 26.6018 22.4482 26.6018L18.098 26.6019C18.0717 26.6023 18.0457 26.6012 18.0201 26.5987C17.9882 26.5956 17.9572 26.591 17.9271 26.5851C17.9015 26.58 17.8724 26.5724 17.8398 26.5622C17.8111 26.5535 17.783 26.5434 17.7555 26.5319C17.7279 26.5204 17.7013 26.5077 17.6756 26.4937C17.6487 26.479 17.622 26.4627 17.5954 26.4447C17.5702 26.4276 17.5473 26.4105 17.5268 26.3935C17.5032 26.3736 17.4776 26.3494 17.4499 26.3211C17.4287 26.2998 17.409 26.2777 17.3906 26.255C17.3726 26.2325 17.3533 26.2054 17.3328 26.1737C17.3156 26.1477 17.3009 26.123 17.2886 26.0996C17.2721 26.0677 17.2571 26.0351 17.2434 26.0017C17.2323 25.9747 17.2216 25.9432 17.2112 25.9073C17.2017 25.8758 17.1945 25.8481 17.1897 25.8244C17.1826 25.7863 17.1774 25.7526 17.1743 25.7231C17.1711 25.6885 17.1695 25.6536 17.1695 25.6185L17.1695 11.9042C17.1695 11.316 16.6927 10.8392 16.1045 10.8392L11.2145 10.8392C11.1191 10.8392 11.0191 10.8436 10.9146 10.8524C10.8147 10.8621 10.7157 10.8766 10.6176 10.8959C10.5149 10.9161 10.4164 10.9411 10.3221 10.9707C10.2258 10.9999 10.1308 11.0341 10.037 11.0731C9.94199 11.1127 9.84946 11.157 9.75941 11.206C9.67104 11.2541 9.58484 11.3066 9.50079 11.3636C9.41746 11.4202 9.33467 11.4827 9.25244 11.5512C9.17602 11.6158 9.10501 11.6819 9.03941 11.7493C8.96429 11.8249 8.89768 11.8996 8.83957 11.9734C8.77154 12.0563 8.71045 12.1398 8.65628 12.2239C8.59965 12.3098 8.54857 12.3961 8.50304 12.4829C8.45257 12.5779 8.40935 12.671 8.37338 12.7622C8.33329 12.8601 8.29993 12.9553 8.27328 13.0479C8.24412 13.1445 8.21869 13.2471 8.19701 13.3557C8.17949 13.4496 8.16523 13.5491 8.15421 13.6543C8.14515 13.7541 8.14062 13.8536 8.14062 13.9526L8.14062 29.376C8.14062 29.4805 8.14611 29.5846 8.15707 29.6885C8.16757 29.788 8.18266 29.887 8.20232 29.9853C8.22223 30.0847 8.24679 30.1827 8.27598 30.2794C8.30524 30.3763 8.3381 30.4692 8.37454 30.5581C8.41342 30.655 8.45659 30.748 8.50404 30.8373C8.55145 30.9278 8.60277 31.0148 8.658 31.0985C8.71368 31.1836 8.77319 31.2653 8.83652 31.3438C8.90184 31.4251 8.96618 31.4975 9.02953 31.561C9.10381 31.6387 9.1819 31.7115 9.26378 31.7795C9.3421 31.8446 9.4221 31.9048 9.5038 31.9602C9.58541 32.0157 9.67098 32.0682 9.7605 32.1176C9.85018 32.1665 9.93762 32.2087 10.0228 32.2442C10.1225 32.2877 10.2185 32.3233 10.3109 32.3508C10.4123 32.3831 10.5103 32.4085 10.6049 32.427C10.7091 32.449 10.8125 32.4649 10.9153 32.4747C11.0145 32.4844 11.1142 32.4893 11.2145 32.4893L20.4658 32.4893C20.5721 32.4893 20.6758 32.4835 20.7768 32.472C20.8772 32.4609 20.9759 32.445 21.0728 32.4243C21.1687 32.4041 21.2663 32.3787 21.3654 32.3481C21.4648 32.3164 21.556 32.2823 21.639 32.2458C21.737 32.2045 21.8294 32.1592 21.9161 32.1098C22.0034 32.0616 22.0888 32.0088 22.1722 31.9514C22.2541 31.895 22.3339 31.8339 22.4117 31.7682C22.4902 31.7018 22.5633 31.6331 22.6311 31.5622C22.7009 31.4905 22.7685 31.4138 22.8341 31.3321C22.8952 31.255 22.956 31.17 23.0166 31.0771C23.0669 30.9972 23.1138 30.9157 23.1573 30.8327C23.2048 30.7422 23.2483 30.6477 23.2878 30.5491C23.323 30.4602 23.3561 30.3652 23.3869 30.2641C23.4149 30.1672 23.4371 30.0743 23.4536 29.9853C23.4744 29.883 23.4897 29.7796 23.4993 29.6751C23.5086 29.5764 23.5132 29.4767 23.5132 29.376ZM21.3832 28.7318L18.1286 28.7317C18.0228 28.7332 17.9175 28.7288 17.8127 28.7186C17.7115 28.7087 17.6129 28.6942 17.5172 28.6752C17.4142 28.6551 17.3155 28.6301 17.2212 28.6004C17.124 28.5709 17.0288 28.5367 16.9354 28.4978C16.8393 28.4577 16.747 28.4134 16.6585 28.3651C16.5704 28.3172 16.4843 28.2648 16.4003 28.2079C16.3177 28.1518 16.2348 28.0893 16.1518 28.0203C16.0759 27.9561 16.0046 27.8898 15.9379 27.8214C15.865 27.7479 15.7958 27.6705 15.7302 27.5891C15.6658 27.509 15.6076 27.4285 15.5555 27.3476C15.499 27.2621 15.4459 27.172 15.3961 27.0772C15.3509 26.9897 15.3096 26.9002 15.2722 26.8087C15.2319 26.7104 15.1986 26.6153 15.1722 26.5234C15.143 26.4267 15.1176 26.3241 15.0959 26.2156C15.0784 26.1219 15.0642 26.0227 15.0532 25.918C15.044 25.8186 15.0395 25.7188 15.0395 25.6185L15.0395 12.9692L11.2145 12.9692C11.178 12.9692 11.1467 12.9703 11.1205 12.9724C11.0897 12.9754 11.0592 12.9799 11.029 12.9858C11.0029 12.991 10.9736 12.9986 10.9412 13.0087C10.9124 13.0175 10.8841 13.0276 10.8563 13.0392C10.8294 13.0504 10.803 13.0631 10.777 13.0772C10.7497 13.0921 10.7232 13.1083 10.6973 13.1258C10.6712 13.1435 10.6483 13.1606 10.6285 13.177C10.6043 13.1975 10.5784 13.2219 10.5507 13.2502C10.5325 13.2686 10.511 13.2934 10.4862 13.3245C10.4698 13.3445 10.4525 13.3686 10.4343 13.3968C10.4168 13.4233 10.4 13.4518 10.384 13.4824C10.3709 13.507 10.3578 13.536 10.3445 13.5694C10.3335 13.5963 10.3228 13.6276 10.3124 13.6635C10.3029 13.6951 10.2957 13.7228 10.2909 13.7464C10.2837 13.7848 10.2786 13.8183 10.2755 13.8467C10.2723 13.8825 10.2706 13.9178 10.2706 13.9526L10.2706 29.376C10.2706 29.4057 10.2722 29.4354 10.2753 29.465C10.279 29.4993 10.2841 29.5333 10.2909 29.567C10.2974 29.5998 10.3055 29.632 10.315 29.6635C10.3246 29.6954 10.3367 29.7292 10.3513 29.7647C10.3619 29.7911 10.3751 29.8192 10.3909 29.8491C10.4049 29.8758 10.4215 29.9036 10.4405 29.9324C10.4572 29.958 10.4762 29.9839 10.4972 30.01C10.5154 30.0325 10.5391 30.0587 10.5685 30.0884C10.5867 30.1075 10.6055 30.1251 10.625 30.1412C10.65 30.162 10.6758 30.1814 10.7022 30.1993C10.729 30.2176 10.7554 30.2338 10.7812 30.2481C10.8057 30.2614 10.8372 30.2762 10.8757 30.2924C10.8965 30.3015 10.9239 30.3111 10.9577 30.3214C10.9814 30.3289 11.0103 30.3361 11.0443 30.3429C11.0704 30.3484 11.0964 30.3524 11.1225 30.3549C11.1528 30.3578 11.1834 30.3593 11.2145 30.3593L20.4658 30.3593C20.4915 30.3593 20.5173 30.3578 20.5433 30.3549C20.5725 30.3516 20.6025 30.3467 20.6333 30.3402C20.666 30.3333 20.6945 30.3261 20.7186 30.3187C20.7467 30.3098 20.7779 30.2978 20.8124 30.2827C20.8329 30.274 20.8578 30.2615 20.8869 30.245C20.9126 30.2308 20.9383 30.2149 20.9639 30.1973C20.9881 30.1806 21.0122 30.162 21.0363 30.1417C21.0574 30.1238 21.0803 30.1021 21.1049 30.0764C21.1274 30.0533 21.1469 30.0314 21.1636 30.0107C21.185 29.9836 21.2017 29.961 21.2137 29.9429C21.2342 29.9104 21.2534 29.877 21.2713 29.8427C21.2852 29.8162 21.2972 29.7905 21.3072 29.7655C21.3215 29.7294 21.3325 29.6988 21.3404 29.6735C21.3494 29.6423 21.358 29.605 21.3662 29.5616C21.3717 29.5343 21.3759 29.5057 21.3786 29.4757C21.3817 29.4432 21.3832 29.41 21.3832 29.376L21.3832 28.7318Z" fill-rule="evenodd"  fill="#64748B" ></path><path d="M30.3985 25.6179L30.3985 10.1945C30.3985 10.0943 30.3935 9.99039 30.3835 9.88287C30.3736 9.78885 30.3598 9.69418 30.3421 9.59886C30.3228 9.49517 30.2994 9.39819 30.2721 9.30791C30.2422 9.20286 30.2089 9.10608 30.172 9.01759C30.1341 8.92195 30.0906 8.82641 30.0413 8.73095C29.9957 8.6441 29.9464 8.55949 29.8933 8.47713C29.8388 8.39252 29.7801 8.31045 29.7174 8.23091C29.6508 8.14664 29.5848 8.07161 29.5193 8.00583C29.4476 7.93085 29.3728 7.86031 29.2947 7.79422C29.2165 7.72787 29.1368 7.66671 29.0557 7.61073C28.9712 7.552 28.8861 7.49892 28.8003 7.45149C28.7075 7.39959 28.6158 7.35452 28.5252 7.31627C28.4317 7.27595 28.337 7.24055 28.2411 7.21008C28.1448 7.17943 28.0468 7.15357 27.9471 7.13252C27.8485 7.11176 27.7449 7.09543 27.6365 7.08351C27.5418 7.07431 27.4423 7.06901 27.3379 7.06763L18.0866 7.06763C17.9862 7.06763 17.8814 7.07297 17.772 7.08367C17.678 7.09411 17.5789 7.1095 17.4747 7.12984C17.3753 7.15074 17.2831 7.17479 17.198 7.20199C17.0951 7.23284 16.9983 7.26781 16.9077 7.30691C16.8089 7.3481 16.7143 7.39398 16.6241 7.44454C16.5383 7.49194 16.4534 7.54415 16.3694 7.60118C16.284 7.65964 16.2047 7.71989 16.1314 7.78192C16.0517 7.84824 15.9755 7.91869 15.9028 7.99326C15.8302 8.06778 15.7619 8.14563 15.6979 8.2268C15.6377 8.30297 15.5787 8.38496 15.5208 8.47279C15.4685 8.5539 15.4186 8.63916 15.3711 8.72857C15.3226 8.82115 15.2807 8.9121 15.2455 9.00142C15.2065 9.09648 15.1715 9.19642 15.1403 9.30124C15.1137 9.39359 15.0898 9.49276 15.0686 9.59875C15.0513 9.69279 15.0372 9.79141 15.0264 9.89463C15.0173 9.99409 15.0127 10.0941 15.0127 10.1945L15.0127 25.6179C15.0127 25.7185 15.0177 25.823 15.0278 25.9315C15.0378 26.0268 15.0525 26.1258 15.0717 26.2286C15.0917 26.328 15.115 26.4218 15.1417 26.51C15.1708 26.6111 15.2054 26.7106 15.2454 26.8083C15.2828 26.8996 15.3253 26.9912 15.3728 27.0831C15.4204 27.1738 15.4702 27.2585 15.5222 27.3372C15.5805 27.4276 15.6394 27.5089 15.6989 27.5812C15.765 27.665 15.8336 27.7427 15.9047 27.8144C15.9758 27.8872 16.0515 27.9576 16.1319 28.0255C16.2103 28.0906 16.2909 28.1512 16.3735 28.2073C16.4577 28.2643 16.5431 28.3165 16.6299 28.3636C16.7195 28.4125 16.8124 28.4571 16.9086 28.4972C17.002 28.5361 17.0939 28.5693 17.1844 28.5968C17.2854 28.6285 17.3867 28.6544 17.4882 28.6743C17.5854 28.6936 17.6847 28.7081 17.786 28.718C17.8907 28.7283 17.9909 28.7326 18.0866 28.7312L27.3379 28.7312C27.4381 28.7312 27.5423 28.7259 27.6503 28.7153C27.744 28.705 27.8391 28.6903 27.9355 28.6714C28.0381 28.651 28.1396 28.6248 28.2401 28.5928C28.333 28.5632 28.4247 28.5295 28.5151 28.4918C28.6065 28.4533 28.6992 28.4084 28.7934 28.3572C28.8826 28.308 28.9662 28.2562 29.0443 28.2019C29.1296 28.1441 29.212 28.0815 29.2917 28.0142C29.3656 27.9517 29.4414 27.8813 29.5189 27.803C29.5858 27.7331 29.6496 27.6602 29.7104 27.5845C29.7731 27.5065 29.8339 27.4227 29.8929 27.3331C29.9464 27.2501 29.997 27.1632 30.0445 27.0725C30.0908 26.983 30.1332 26.8901 30.1718 26.7938C30.2073 26.7042 30.2391 26.6129 30.2672 26.5199C30.2975 26.4196 30.3225 26.3174 30.3422 26.2133C30.3599 26.1185 30.374 26.0198 30.3847 25.9172C30.3939 25.818 30.3985 25.7182 30.3985 25.6179ZM28.2651 10.1046C28.2673 10.1301 28.2685 10.16 28.2685 10.1945L28.2685 25.6179C28.2685 25.6524 28.2669 25.6865 28.2638 25.7202C28.2606 25.7497 28.2554 25.784 28.2482 25.8229C28.2432 25.849 28.2365 25.8761 28.2281 25.9042C28.2172 25.9403 28.2049 25.9756 28.1912 26.0102C28.1803 26.0373 28.1673 26.0655 28.1521 26.095C28.1381 26.1217 28.1216 26.1496 28.1028 26.1789C28.0883 26.2008 28.0707 26.2246 28.05 26.2504C28.0276 26.2783 28.0042 26.3049 27.9799 26.3304C27.964 26.3462 27.9428 26.3653 27.9163 26.3877C27.8944 26.4062 27.872 26.4233 27.8492 26.4388C27.8174 26.4608 27.7891 26.4786 27.7643 26.4923C27.74 26.5055 27.7147 26.5176 27.6885 26.5287C27.6591 26.541 27.6274 26.5525 27.5934 26.5634C27.5688 26.5712 27.5443 26.5775 27.52 26.5824C27.4857 26.5891 27.4513 26.5943 27.4167 26.5982C27.3952 26.6002 27.3689 26.6012 27.3379 26.6012L18.0866 26.6012C18.05 26.6017 18.0189 26.6007 17.9933 26.5982C17.9615 26.5951 17.9312 26.5907 17.9025 26.585C17.8754 26.5797 17.8489 26.5729 17.823 26.5648C17.7877 26.554 17.7562 26.5429 17.7288 26.5314C17.7012 26.5199 17.6751 26.5074 17.6506 26.4941C17.6225 26.4788 17.5952 26.4622 17.5687 26.4442C17.5434 26.4271 17.5182 26.4081 17.4931 26.3872C17.4741 26.3711 17.4529 26.3511 17.4295 26.3271C17.4067 26.304 17.3872 26.2823 17.3711 26.2618C17.3462 26.2313 17.3267 26.2051 17.3125 26.183C17.291 26.1505 17.273 26.1203 17.2584 26.0925C17.2442 26.065 17.2303 26.0345 17.2166 26.0011C17.2056 25.9743 17.1961 25.9471 17.1882 25.9195C17.1762 25.8795 17.1669 25.8431 17.1603 25.8103C17.1549 25.7813 17.1502 25.7474 17.1461 25.7086C17.1438 25.6833 17.1427 25.6531 17.1427 25.6179L17.1427 10.1945C17.1427 10.1594 17.1443 10.1246 17.1475 10.0901C17.1507 10.0598 17.156 10.0246 17.1634 9.98455C17.1688 9.95814 17.1766 9.92707 17.1869 9.89136C17.1945 9.86592 17.2044 9.83836 17.2166 9.80868C17.2305 9.77357 17.2441 9.74333 17.2574 9.71798C17.2734 9.68798 17.2913 9.65749 17.3113 9.62651C17.3275 9.60206 17.3469 9.57552 17.3695 9.54688C17.388 9.52344 17.4078 9.50091 17.4288 9.47929C17.4494 9.45814 17.471 9.43815 17.4937 9.41931C17.5207 9.3965 17.5471 9.37627 17.5728 9.35863C17.5982 9.34145 17.6251 9.32494 17.6538 9.30911C17.6797 9.2946 17.7041 9.28258 17.727 9.27304C17.7579 9.25978 17.7854 9.24955 17.8094 9.24234C17.8494 9.22972 17.8841 9.22033 17.9134 9.21415C17.9393 9.20921 17.9706 9.20471 18.0073 9.20063C18.0286 9.19863 18.055 9.19762 18.0866 9.19762L27.3379 9.19762C27.3635 9.19805 27.3944 9.20002 27.4305 9.20352C27.4515 9.20591 27.4775 9.21035 27.5084 9.21685C27.5376 9.22303 27.5665 9.23065 27.595 9.23972C27.6241 9.24896 27.6528 9.25968 27.6811 9.27187C27.7097 9.28398 27.736 9.29678 27.7602 9.31028C27.7887 9.32609 27.8154 9.34264 27.8404 9.35993C27.8668 9.37817 27.892 9.39748 27.916 9.41786C27.9384 9.43688 27.9596 9.45679 27.9795 9.47757C28.0071 9.50557 28.0291 9.53003 28.0457 9.55096C28.066 9.5767 28.0849 9.60314 28.1024 9.63029C28.1214 9.65989 28.1391 9.69012 28.1553 9.72098C28.1675 9.74474 28.1795 9.77129 28.1911 9.80062C28.2053 9.8352 28.216 9.86504 28.2232 9.89015C28.2347 9.92866 28.2431 9.96189 28.2483 9.98984C28.2555 10.0287 28.2611 10.067 28.2651 10.1046Z" fill-rule="evenodd"  fill="#64748B" ></path><path d="M32.2616 0L6.34504 0C2.84077 0 0 2.84074 0 6.34499L0 33.2244C0 36.7286 2.84077 39.5694 6.34504 39.5694L32.2616 39.5694C35.7658 39.5694 38.6066 36.7286 38.6066 33.2244L38.6066 6.34499C38.6066 2.84074 35.7658 0 32.2616 0ZM2.13001 6.34499C2.13001 4.01711 4.01715 2.13 6.34504 2.13L32.2616 2.13C34.5895 2.13 36.4766 4.01711 36.4766 6.34499L36.4766 33.2244C36.4766 35.5523 34.5895 37.4394 32.2616 37.4394L6.34504 37.4394C4.01715 37.4394 2.13001 35.5523 2.13001 33.2244L2.13001 6.34499Z" fill-rule="evenodd"  fill="#64748B" ></path></svg>